<?xml version="1.0" encoding="UTF-8" standalone="no"?>
<!DOCTYPE svg PUBLIC "-//W3C//DTD SVG 20010904//EN"
              "http://www.w3.org/TR/2001/REC-SVG-20010904/DTD/svg10.dtd">

<svg xmlns="http://www.w3.org/2000/svg" viewBox="0 0 1024 1024"> 
  <path id="semmel_1"
        fill="peru" stroke="black" stroke-width="10"
        d="M 129.00,510.00
           C 156.00,454.50 390.00,201.00 502.50,157.50
             640.50,88.50 712.50,166.50 805.50,234.00
             918.00,333.00 910.50,397.50 886.50,483.00
             867.00,538.50 673.50,753.00 555.00,852.00
             487.50,912.00 373.50,963.00 268.50,900.00
             196.50,850.50 196.50,841.50 129.00,766.50
             84.00,694.50 79.50,618.00 129.00,510.00 Z" />
  <path id="semmel_2"
        fill="peachpuff" stroke="black" stroke-width="10"
        d="M 195.00,826.50
           C 166.67,713.33 168.00,552.00 253.50,424.50
             327.00,346.50 468.00,229.50 592.50,192.00
             706.50,154.50 830.00,251.33 826.50,264.00
             817.33,350.67 197.23,825.95 195.00,826.50 Z" />
</svg>
