<?xml version="1.0" encoding="UTF-8" standalone="no"?>
<!DOCTYPE svg PUBLIC "-//W3C//DTD SVG 20010904//EN"
              "http://www.w3.org/TR/2001/REC-SVG-20010904/DTD/svg10.dtd">

<svg xmlns="http://www.w3.org/2000/svg"
     viewBox="0 0 2000 2000">
  <path id="breze_3"
        fill="peru" stroke="black" stroke-width="15"
        d="M 1646.00,540.00
           C 1822.00,766.00 1796.00,1082.00 1630.00,1332.00
             1374.00,1698.00 796.00,1682.00 546.00,1446.00
             348.00,1232.00 184.00,862.00 272.00,590.00
             426.00,285.00 806.00,318.00 1002.00,494.00
             1180.00,674.00 1102.50,847.50 1102.50,847.50
             942.00,835.50 841.50,676.50 772.50,622.50
             600.00,502.50 440.00,664.00 537.00,894.00
             624.00,1068.00 678.00,1316.00 1050.00,1326.00
             1336.00,1314.00 1460.00,1172.00 1512.00,888.00
             1542.00,648.00 1305.00,509.00 1114.00,692.00
             1099.00,613.00 1041.00,531.00 1002.00,494.00
             1051.00,473.00 1370.00,216.00 1646.00,540.00 Z" />
  <path id="breze_1"
        fill="peru" stroke="black" stroke-width="15"
        d="M 815.50,664.00
           C 890.00,742.00 971.00,836.00 1102.00,847.00
             1314.44,932.63 1569.44,989.89 1611.00,1005.00
             1743.00,1053.00 1662.00,1200.00 1551.00,1179.00
             1422.00,1158.00 949.50,1023.00 828.00,918.00
             768.00,864.00 764.00,751.00 815.50,664.00 Z" />
  <path id="breze_2"
        fill="peru" stroke="black" stroke-width="15"
        d="M 666.00,895.50
           C 786.00,928.50 792.00,867.46 792.00,864.00
             815.50,936.00 911.50,969.00 992.00,1009.00
             877.00,1115.00 678.00,1083.00 561.00,1113.00
             362.68,1166.66 346.50,1078.50 405.00,978.00
             405.00,978.00 549.00,865.50 666.00,895.50 Z" />
  <path id="breze_4"
        fill="peachpuff" stroke="black" stroke-width="15"
        d="M 522.00,1282.00
           C 602.00,1306.00 808.00,1430.00 980.00,1438.00
             1142.00,1442.00 1386.00,1378.00 1470.00,1326.00
             1464.00,1460.00 1224.00,1568.00 1008.00,1584.00
             694.00,1604.00 532.00,1382.00 522.00,1282.00 Z" />
  <path id="breze_5"
        fill="white" stroke="mintcream" stroke-width="15"
        d="M 898.00,535.00
           C 898.00,535.00 910.00,529.00 910.00,529.00
             910.00,529.00 925.00,551.00 925.00,551.00
             925.00,551.00 910.00,560.00 910.00,560.00
             910.00,560.00 898.00,535.00 898.00,535.00 Z
           M 858.00,582.00
           C 858.00,582.00 873.00,594.00 872.00,595.00
             871.00,596.00 852.00,609.00 852.00,609.00
             852.00,609.00 839.00,596.00 839.00,596.00
             839.00,596.00 858.00,582.00 858.00,582.00 Z
           M 929.00,641.00
           C 930.00,640.00 936.00,661.00 936.00,661.00
             936.00,661.00 913.00,664.00 912.00,664.00
             911.00,664.00 928.00,642.00 929.00,641.00 Z
           M 1130.00,514.00
           C 1130.00,512.00 1144.00,527.00 1144.00,527.00
             1144.00,527.00 1123.00,543.00 1123.00,543.00
             1123.00,543.00 1130.00,516.00 1130.00,514.00 Z
           M 1144.00,479.00
           C 1144.00,480.00 1163.00,468.00 1163.00,468.00
             1163.00,468.00 1176.00,483.00 1176.00,483.00
             1176.00,483.00 1173.00,496.00 1173.00,496.00
             1173.00,496.00 1144.00,478.00 1144.00,479.00 Z
           M 1254.00,435.00
           C 1254.00,435.00 1272.00,439.00 1272.00,439.00
             1272.00,439.00 1269.00,452.00 1269.00,452.00
             1269.00,452.00 1251.00,456.00 1251.00,456.00
             1251.00,456.00 1254.00,435.00 1254.00,435.00 Z
           M 1410.00,438.00
           C 1410.00,438.00 1418.00,458.00 1418.00,458.00
             1418.00,458.00 1399.00,470.00 1399.00,470.00
             1399.00,470.00 1399.00,454.00 1399.00,454.00
             1399.00,454.00 1410.00,438.00 1410.00,438.00 Z
           M 1376.00,558.00
           C 1376.00,558.00 1386.00,573.00 1386.00,573.00
             1386.00,573.00 1382.00,585.00 1381.00,584.00
             1380.00,583.00 1357.00,572.00 1359.00,572.00
             1361.00,572.00 1376.00,558.00 1376.00,558.00 Z
           M 1660.00,737.00
           C 1660.00,736.00 1679.00,738.00 1679.00,738.00
             1679.00,738.00 1683.00,756.00 1683.00,756.00
             1683.00,756.00 1663.00,772.00 1663.00,772.00
             1663.00,772.00 1660.00,738.00 1660.00,737.00 Z
           M 1686.00,844.00
           C 1686.00,844.00 1703.00,856.00 1703.00,856.00
             1703.00,856.00 1700.00,872.00 1700.00,872.00
             1700.00,872.00 1679.00,867.00 1679.00,867.00
             1679.00,867.00 1686.00,844.00 1686.00,844.00 Z
           M 1732.00,930.00
           C 1732.00,930.00 1740.00,950.00 1740.00,950.00
             1740.00,950.00 1723.00,960.00 1723.00,960.00
             1723.00,960.00 1714.00,942.00 1714.00,942.00
             1714.00,942.00 1732.00,930.00 1732.00,930.00 Z
           M 1652.00,1245.00
           C 1655.00,1246.00 1664.00,1256.00 1664.00,1256.00
             1664.00,1256.00 1656.00,1274.00 1656.00,1274.00
             1656.00,1274.00 1648.00,1261.00 1648.00,1260.00
             1648.00,1259.00 1649.00,1244.00 1652.00,1245.00 Z
           M 1542.00,1299.00
           C 1542.00,1299.00 1565.00,1304.00 1565.00,1304.00
             1565.00,1304.00 1564.00,1323.00 1564.00,1323.00
             1564.00,1323.00 1546.00,1320.00 1546.00,1320.00
             1546.00,1320.00 1542.00,1299.00 1542.00,1299.00 Z
           M 1548.00,1067.00
           C 1547.00,1066.00 1570.00,1051.00 1570.00,1051.00
             1570.00,1051.00 1574.00,1066.00 1574.00,1066.00
             1574.00,1066.00 1569.00,1078.00 1567.00,1078.00
             1565.00,1078.00 1549.00,1068.00 1548.00,1067.00 Z
           M 1279.00,945.00
           C 1279.00,945.00 1310.00,947.00 1310.00,947.00
             1310.00,947.00 1311.00,965.00 1309.00,965.00
             1307.00,965.00 1279.00,945.00 1279.00,945.00 Z
           M 494.00,399.00
           C 494.00,399.00 516.00,401.00 516.00,401.00
             516.00,401.00 515.00,427.00 515.00,427.00
             515.00,427.00 497.00,430.00 497.00,430.00
             497.00,430.00 494.00,399.00 494.00,399.00 Z
           M 421.00,486.00
           C 421.00,486.00 445.00,488.00 445.00,488.00
             445.00,488.00 445.00,505.00 445.00,505.00
             445.00,505.00 421.00,486.00 421.00,486.00 Z
           M 455.00,537.00
           C 457.00,535.00 480.00,532.00 480.00,532.00
             480.00,532.00 483.00,544.00 483.00,544.00
             483.00,544.00 466.00,557.00 466.00,557.00
             466.00,557.00 453.00,539.00 455.00,537.00 Z
           M 338.00,659.00
           C 338.00,659.00 354.00,656.00 354.00,656.00
             354.00,656.00 367.00,672.00 367.00,672.00
             367.00,672.00 349.00,675.00 349.00,675.00
             349.00,675.00 338.00,659.00 338.00,659.00 Z
           M 814.00,931.00
           C 814.00,931.00 836.00,943.00 836.00,943.00
             836.00,943.00 816.00,962.00 816.00,962.00
             816.00,962.00 801.00,952.00 801.00,952.00
             801.00,952.00 814.00,931.00 814.00,931.00 Z
           M 527.00,996.00
           C 527.00,996.00 551.00,982.00 551.00,982.00
             551.00,982.00 561.00,1000.00 561.00,1000.00
             561.00,1000.00 544.00,1008.00 544.00,1008.00
             544.00,1008.00 527.00,996.00 527.00,996.00 Z
           M 530.00,1146.00
           C 530.00,1146.00 561.00,1136.00 561.00,1136.00
             561.00,1136.00 566.00,1155.00 566.00,1155.00
             566.00,1155.00 530.00,1146.00 530.00,1146.00 Z
           M 701.00,1260.00
           C 701.00,1260.00 713.00,1268.00 713.00,1268.00
             713.00,1268.00 714.00,1290.00 714.00,1288.00
             714.00,1286.00 696.00,1272.00 696.00,1272.00
             696.00,1272.00 701.00,1260.00 701.00,1260.00 Z
           M 930.00,1411.00
           C 929.00,1411.00 943.00,1410.00 943.00,1410.00
             943.00,1410.00 957.00,1423.00 957.00,1423.00
             957.00,1423.00 940.00,1434.00 940.00,1434.00
             940.00,1434.00 931.00,1411.00 930.00,1411.00 Z
           M 644.00,1278.00
           C 644.00,1278.00 670.00,1297.00 670.00,1297.00
             670.00,1297.00 648.00,1297.00 648.00,1297.00
             648.00,1297.00 644.00,1278.00 644.00,1278.00 Z
           M 785.00,1288.00
           C 785.00,1288.00 799.00,1302.00 799.00,1302.00
             799.00,1302.00 788.00,1302.00 788.00,1302.00
             788.00,1302.00 785.00,1288.00 785.00,1288.00 Z
           M 996.00,1392.00
           C 996.00,1392.00 1019.00,1401.00 1019.00,1401.00
             1019.00,1401.00 1008.00,1410.00 1008.00,1410.00
             1008.00,1410.00 996.00,1392.00 996.00,1392.00 Z
           M 1215.00,1348.00
           C 1215.00,1348.00 1228.00,1355.00 1228.00,1357.00
             1228.00,1359.00 1218.00,1370.00 1218.00,1370.00
             1218.00,1370.00 1209.00,1358.00 1209.00,1358.00
             1209.00,1358.00 1215.00,1348.00 1215.00,1348.00 Z
           M 1263.00,1317.00
           C 1263.00,1317.00 1284.00,1330.00 1284.00,1330.00
             1284.00,1330.00 1269.00,1337.00 1269.00,1337.00
             1269.00,1337.00 1263.00,1317.00 1263.00,1317.00 Z
           M 1346.00,1520.00
           C 1346.00,1520.00 1362.67,1522.00 1362.67,1522.00
             1362.67,1522.00 1366.00,1542.67 1366.00,1541.33
             1366.00,1540.00 1340.00,1529.33 1340.00,1529.33
             1340.00,1529.33 1346.00,1520.00 1346.00,1520.00 Z
           M 1129.33,1586.00
           C 1129.33,1586.00 1158.67,1582.00 1158.67,1582.00
             1158.67,1582.00 1152.67,1592.00 1152.67,1592.00
             1152.67,1592.00 1129.33,1586.00 1129.33,1586.00 Z
           M 609.00,1441.50
           C 612.00,1441.50 633.00,1459.50 633.00,1459.50
             633.00,1459.50 615.00,1476.00 615.00,1476.00
             615.00,1476.00 606.00,1441.50 609.00,1441.50 Z" />

</svg>
