<?xml version="1.0" encoding="UTF-8" standalone="no"?>
<!DOCTYPE svg PUBLIC "-//W3C//DTD SVG 20010904//EN"
              "http://www.w3.org/TR/2001/REC-SVG-20010904/DTD/svg10.dtd">

<svg xmlns="http://www.w3.org/2000/svg"
     viewBox="0 0 512 512">
  <path id="brot_1"
        fill="peru" stroke="black" stroke-width="5"
        d="M 41.50,78.77
           C 61.00,45.95 122.75,29.95 146.00,37.20
             162.50,41.85 406.00,173.95 460.00,214.43
             517.00,257.64 460.00,320.00 454.00,330.39
             456.67,367.59 424.00,406.97 406.00,403.69
             406.00,446.36 364.67,470.43 329.33,474.80
             272.67,483.56 204.00,463.86 164.67,437.61
             116.67,409.16 62.00,316.44 45.00,289.64
             39.67,279.25 33.00,247.79 43.00,248.62
             30.50,218.26 23.50,157.81 29.50,153.44
             23.00,98.46 36.50,91.08 41.50,78.77 Z" />
   <path id="brot_2"
        fill="peachpuff" stroke="black" stroke-width="5"
        d="M 43.00,249.44
           C 155.00,397.95 278.00,427.49 406.00,403.69
             399.00,429.95 258.00,455.38 178.50,400.41
             100.00,347.90 42.26,249.88 43.00,249.44 Z
           M 29.00,151.52
           C 32.50,245.06 312.75,417.23 453.75,330.26
             406.25,381.13 297.00,371.69 224.50,340.51
             136.00,301.13 29.50,227.01 29.00,151.52 Z
           M 33.00,109.95
           C 30.33,60.72 99.00,32.82 139.00,39.38
             168.00,44.31 429.50,196.92 447.00,210.05
             548.00,278.97 399.50,333.13 284.50,297.03
             231.50,282.26 44.00,219.35 33.00,109.95 Z" />
</svg>
