<?xml version="1.0" encoding="UTF-8" standalone="no"?>
<!DOCTYPE svg PUBLIC "-//W3C//DTD SVG 20010904//EN"
              "http://www.w3.org/TR/2001/REC-SVG-20010904/DTD/svg10.dtd">

<svg xmlns="http://www.w3.org/2000/svg"
     viewBox="0 0 480 480">
  <path id="ob_2"
        fill="aliceblue" stroke="black" stroke-width="5"
        d="M 58.67,245.33
           C 58.67,245.33 432.00,233.33 432.00,233.33
             432.00,233.33 425.33,331.33 425.33,331.33
             316.67,502.17 126.00,445.33 73.33,339.33
             73.33,339.33 58.67,245.33 58.67,245.33 Z" />
  <path id="ob_1"
        fill="aliceblue" stroke="black" stroke-width="5"
        d="M 75.33,214.67
           C 81.33,153.33 145.33,116.00 238.67,104.67
             310.00,97.33 442.00,152.67 409.33,234.67
             392.67,278.67 347.33,320.67 260.67,331.33
             146.67,339.33 69.33,302.67 75.33,214.67 Z
           M 50.67,218.00
           C 53.33,139.33 148.00,90.67 241.33,79.33
             312.67,72.00 478.00,124.00 433.33,246.67
             412.67,296.67 351.33,345.33 264.67,356.00
             150.67,364.00 54.67,329.33 50.67,218.00 Z" />
  
  <path id="ob_3"
        fill="orange" stroke="black" stroke-width="5"
        d="M 85.33,164.67
           C 86.00,145.75 100.75,114.00 125.33,122.67
             144.75,126.75 126.25,97.50 152.67,106.00
             160.94,102.75 156.50,85.00 167.33,87.33
             184.50,90.25 180.75,103.75 202.00,98.67
             218.50,80.75 274.50,56.25 270.67,81.33
             268.75,93.00 291.89,62.60 296.67,83.33
             318.59,51.50 345.00,86.25 334.67,104.67
             351.50,96.50 375.50,110.25 370.67,123.33
             386.23,119.34 423.72,154.94 404.00,160.00
             429.75,165.25 430.08,234.00 412.00,234.00
             436.19,260.61 394.00,287.00 374.50,287.00
             380.23,317.41 347.33,299.67 339.33,312.00
             334.00,321.33 312.33,338.33 293.67,330.00
             293.71,332.40 257.94,352.68 257.67,338.67
             235.67,357.67 216.33,351.00 204.33,334.33
             194.33,323.00 165.67,374.00 142.67,319.67
             139.71,324.66 119.85,319.47 124.67,311.33
             95.27,316.93 79.00,302.00 80.67,260.00
             65.50,274.50 47.00,238.00 80.00,214.67
             64.00,183.50 69.70,157.27 85.33,164.67 Z" />
  <path id="ob_4_h"
        fill="khaki" stroke="khaki" stroke-width="5"
        d="M 252.00,295.00
           C 252.00,295.00 267.33,299.67 267.33,299.67
             267.33,299.67 267.00,309.00 267.00,309.00
             267.00,309.00 256.33,313.00 256.33,313.00
             256.33,313.00 252.00,295.00 252.00,295.00 Z
           M 328.00,269.33
           C 328.00,269.33 340.00,247.33 340.00,247.33
             340.00,247.33 352.33,250.33 352.33,250.33
             352.33,250.33 342.67,256.67 342.67,256.67
             342.67,256.67 356.67,259.33 356.67,259.33
             356.67,259.33 361.33,272.00 361.33,271.67
             361.33,271.33 352.67,276.67 352.33,276.67
             352.00,276.67 342.00,262.67 342.00,262.67
             342.00,262.67 328.00,269.33 328.00,269.33 Z
           M 243.33,235.67
           C 243.33,235.67 264.00,235.33 264.00,235.33
             264.00,235.33 270.67,257.67 270.67,257.67
             270.67,257.67 259.33,243.67 259.33,243.67
             259.33,243.67 243.33,235.67 243.33,235.67 Z
           M 230.00,135.33
           C 230.00,135.33 264.67,130.67 264.67,130.67
             264.67,130.67 262.33,139.00 262.33,139.00
             262.33,139.00 248.00,139.33 248.00,139.33
             248.00,139.33 239.00,147.33 239.00,147.33
             239.00,147.33 230.00,135.33 230.00,135.33 Z
           M 122.33,286.67
           C 123.00,285.67 137.00,277.00 137.00,277.00
             137.00,277.00 129.67,289.67 129.67,289.67
             129.67,289.67 140.33,295.33 140.33,295.33
             140.33,295.33 138.00,301.00 138.00,301.00
             138.00,301.00 124.33,299.33 124.33,299.33
             124.33,299.33 121.67,287.67 122.33,286.67 Z
           M 162.00,256.00
           C 162.33,255.67 179.00,260.33 179.00,260.33
             179.00,260.33 176.33,270.67 176.33,270.67
             176.33,270.67 164.00,274.67 164.00,274.00
             164.00,273.33 161.67,256.33 162.00,256.00 Z
           M 207.33,246.67
           C 207.33,246.67 219.67,241.67 219.67,241.67
             219.67,241.67 231.33,244.33 231.33,244.33
             231.33,244.33 238.00,243.33 238.00,243.33
             238.00,243.33 228.67,240.00 228.67,240.00
             228.67,240.00 226.33,234.67 226.33,234.67
             226.33,234.67 238.00,233.67 238.00,233.67
             238.00,233.67 242.00,244.67 242.00,244.67
             242.00,244.67 246.00,254.67 246.00,254.67
             246.00,254.67 228.00,256.67 228.00,256.67
             228.00,256.67 217.67,245.67 218.00,245.33
             218.33,245.00 210.33,251.33 210.33,251.33
             210.33,251.33 207.33,246.67 207.33,246.67 Z
           M 156.67,302.00
           C 156.67,302.00 163.67,295.67 163.67,295.67
             163.67,295.67 175.33,306.33 175.33,306.33
             175.33,306.33 197.33,301.67 197.33,301.67
             197.33,301.67 200.00,305.00 200.00,305.00
             200.00,305.00 177.00,316.33 177.00,316.33
             177.00,316.33 156.67,302.00 156.67,302.00 Z
           M 87.75,250.00
           C 87.75,250.00 101.75,240.75 101.75,240.75
             101.75,240.75 107.25,246.50 107.25,246.75
             107.25,247.00 106.25,257.50 106.25,257.50
             106.25,257.50 101.75,266.75 101.75,266.75
             101.75,266.75 101.25,274.00 101.25,274.00
             101.25,274.00 104.50,281.25 104.50,281.25
             104.50,281.25 90.50,282.00 90.50,282.00
             90.50,282.00 91.00,270.25 91.00,270.25
             91.00,270.25 96.25,264.25 96.25,264.25
             96.25,264.25 94.00,255.25 94.00,255.25
             94.00,255.25 88.75,259.25 88.75,259.25
             88.75,259.25 87.75,250.00 87.75,250.00 Z
           M 78.50,225.50
           C 78.50,225.50 83.75,221.50 84.25,221.00
             84.75,220.50 86.75,230.00 86.75,230.00
             86.75,230.00 82.25,235.75 82.25,235.75
             82.25,235.75 78.50,225.50 78.50,225.50 Z
           M 116.75,233.75
           C 116.75,233.75 129.25,222.75 129.25,222.75
             129.25,222.75 143.50,233.50 143.50,233.50
             143.50,233.50 153.00,232.75 153.00,232.75
             153.00,232.75 154.00,240.00 154.00,240.00
             154.00,240.00 139.50,242.25 139.50,242.25
             139.50,242.25 134.25,234.50 134.25,234.50
             134.25,234.50 124.75,237.25 124.75,237.25
             124.75,237.25 116.75,233.75 116.75,233.75 Z
           M 74.75,178.50
           C 74.75,178.25 88.25,173.00 88.25,173.00
             88.25,173.00 94.75,181.75 95.50,181.50
             96.25,181.25 102.75,181.50 102.75,181.50
             102.75,181.50 104.25,187.25 104.25,187.25
             104.25,187.25 100.25,184.75 100.25,184.75
             100.25,184.75 90.00,184.75 90.00,184.75
             90.00,184.75 76.50,187.75 76.75,187.75
             77.00,187.75 74.75,178.75 74.75,178.50 Z
           M 102.00,129.75
           C 102.00,129.75 110.50,128.50 110.50,128.50
             110.50,128.50 121.25,144.75 121.25,144.75
             121.25,144.75 104.75,146.75 104.75,146.75
             104.75,146.75 107.75,135.00 107.50,135.25
             107.25,135.50 99.00,133.50 99.00,133.50
             99.00,133.50 102.00,129.75 102.00,129.75 Z
           M 161.00,101.50
           C 162.00,100.25 166.75,92.75 167.75,92.75
             168.75,92.75 179.25,100.25 179.25,100.25
             179.25,100.25 175.75,105.50 175.75,105.50
             175.75,105.50 168.50,106.50 168.75,106.25
             169.00,106.00 160.00,102.75 161.00,101.50 Z
           M 160.67,144.00
           C 160.67,144.00 186.00,144.33 186.00,144.33
             186.00,144.33 201.00,144.00 201.00,144.00
             201.00,144.00 203.00,161.67 203.00,161.67
             203.00,161.67 198.67,160.00 198.67,160.00
             198.67,160.00 199.67,150.33 199.67,150.33
             199.67,150.33 189.33,150.00 189.33,150.00
             189.33,150.00 185.33,152.33 185.33,152.33
             185.33,152.33 186.33,157.67 186.33,157.67
             186.33,157.67 193.00,162.67 193.00,162.67
             193.00,162.67 192.33,167.33 192.33,167.00
             192.33,166.67 185.67,164.00 185.67,164.00
             185.67,164.00 181.33,155.33 181.33,155.00
             181.33,154.67 179.33,149.67 179.33,149.67
             179.33,149.67 162.33,149.00 162.33,149.00
             162.33,149.00 160.67,144.00 160.67,144.00 Z
           M 302.33,84.33
           C 302.33,84.33 319.33,73.67 319.33,73.67
             319.33,73.67 328.33,81.33 328.33,81.33
             328.33,81.33 319.00,82.33 319.00,82.33
             319.00,82.33 326.00,87.00 326.00,87.00
             326.00,87.00 326.33,98.33 326.33,98.33
             326.33,98.33 318.33,92.33 318.33,92.33
             318.33,92.33 307.33,101.00 307.33,101.00
             307.33,101.00 309.00,90.33 309.00,90.33
             309.00,90.33 316.67,87.33 316.67,87.33
             316.67,87.33 302.33,84.33 302.33,84.33 Z
           M 233.00,178.00
           C 233.00,178.00 243.67,180.33 243.67,180.33
             243.67,180.33 239.67,188.00 239.67,188.00
             239.67,188.00 239.33,192.00 239.33,192.00
             239.33,192.00 232.00,190.67 232.67,190.67
             233.33,190.67 237.33,184.67 237.33,184.67
             237.33,184.67 233.00,178.00 233.00,178.00 Z
           M 279.67,188.33
           C 279.67,188.33 297.67,170.00 297.67,170.00
             297.67,170.00 306.67,173.33 306.67,173.33
             306.67,173.33 302.67,177.00 302.67,177.00
             302.67,177.00 293.33,181.33 293.33,181.33
             293.33,181.33 289.33,189.00 289.33,189.00
             289.33,189.00 282.33,192.33 282.33,192.33
             282.33,192.33 279.67,188.33 279.67,188.33 Z
           M 335.67,166.00
           C 335.67,166.00 337.67,150.00 337.67,150.00
             337.67,150.00 361.67,148.33 362.33,148.33
             363.00,148.33 378.00,165.33 378.00,165.33
             378.00,165.33 379.67,180.00 379.67,180.00
             379.67,180.00 370.33,179.67 370.33,179.67
             370.33,179.67 373.00,173.67 373.33,173.00
             373.67,172.33 366.67,160.67 366.67,160.67
             366.67,160.67 362.00,170.33 362.00,170.33
             362.00,170.33 358.33,188.33 358.33,188.33
             358.33,188.33 350.00,187.67 350.00,187.67
             350.00,187.67 343.00,171.00 344.67,170.33
             346.33,169.67 354.33,163.67 354.33,161.67
             354.33,159.67 341.67,162.00 342.00,162.33
             342.33,162.67 335.67,166.00 335.67,166.00 Z
           M 347.33,214.67
           C 347.33,214.67 361.00,207.00 361.00,207.00
             361.00,207.00 375.00,218.00 375.33,218.33
             375.67,218.67 371.33,231.00 371.33,231.00
             371.33,231.00 353.00,236.00 353.00,236.00
             353.00,236.00 355.00,225.67 355.00,225.67
             355.00,225.67 364.33,215.00 364.33,215.00
             364.33,215.00 347.33,214.67 347.33,214.67 Z
           M 284.67,212.00
           C 284.67,212.00 303.67,206.67 303.67,206.67
             303.67,206.67 297.00,216.00 297.00,216.00
             297.00,216.00 307.67,219.00 307.67,219.00
             307.67,219.00 284.00,217.00 284.00,217.00
             284.00,217.00 284.67,212.00 284.67,212.00 Z" />
  <path id="ob_4_d"
        fill="chocolate" stroke="chocolate" stroke-width="5"
        d="M 377.50,196.00
           C 377.50,196.00 397.00,188.50 397.50,188.00
             398.00,187.50 404.00,198.00 404.50,198.50
             405.00,199.00 411.50,209.00 412.00,209.50
             412.50,210.00 407.50,219.50 407.50,219.50
             407.50,219.50 398.50,214.00 399.00,213.50
             399.50,213.00 401.00,206.00 401.00,206.00
             401.00,206.00 396.75,200.00 396.75,200.00
             396.75,200.00 388.25,204.75 388.25,204.75
             388.25,204.75 390.50,219.75 390.75,220.00
             391.00,220.25 398.25,231.75 398.50,232.00
             398.75,232.25 391.25,227.75 391.25,227.75
             391.25,227.75 383.50,214.25 383.50,214.00
             383.50,213.75 379.75,203.75 379.75,203.75
             379.75,203.75 370.25,205.75 370.25,205.75
             370.25,205.75 377.50,196.00 377.50,196.00 Z
           M 292.50,303.75
           C 292.50,303.75 293.75,292.25 296.25,292.25
             298.75,292.25 312.00,294.50 312.50,294.75
             313.00,295.00 331.50,287.75 331.50,286.00
             331.50,284.25 322.50,273.00 322.50,273.00
             322.50,273.00 337.25,279.25 337.25,279.25
             337.25,279.25 340.00,291.75 340.00,291.75
             340.00,291.75 328.00,302.00 328.00,302.00
             328.00,302.00 317.50,300.75 317.50,300.25
             317.50,299.75 314.75,309.25 314.75,309.25
             314.75,309.25 307.00,324.50 306.50,324.50
             306.00,324.50 299.00,320.75 299.75,319.50
             300.50,318.25 303.75,306.00 304.25,305.75
             304.75,305.50 298.75,300.50 298.75,300.50
             298.75,300.50 292.50,303.75 292.50,303.75 Z
           M 191.50,275.50
           C 191.50,275.50 204.00,268.00 204.00,268.00
             204.00,268.00 221.50,274.00 222.50,274.50
             223.50,275.00 235.50,284.00 235.50,284.00
             235.50,284.00 219.00,288.50 219.00,288.50
             219.00,288.50 209.00,280.50 209.00,280.50
             209.00,280.50 198.50,280.00 198.50,281.00
             198.50,282.00 195.50,290.50 195.50,290.50
             195.50,290.50 188.00,284.50 188.00,284.50
             188.00,284.50 191.50,275.50 191.50,275.50 Z
           M 124.50,249.00
           C 124.50,249.00 137.00,251.50 137.00,251.50
             137.00,251.50 139.50,263.00 141.00,263.50
             142.50,264.00 129.50,268.00 129.50,268.00
             129.50,268.00 116.50,260.50 118.50,260.50
             120.50,260.50 124.50,249.00 124.50,249.00 Z
           M 116.50,177.50
           C 116.50,177.50 128.00,172.00 128.50,171.00
             129.00,170.00 126.50,152.50 126.50,152.50
             126.50,152.50 143.00,160.00 143.00,160.00
             143.00,160.00 139.50,167.50 139.50,167.50
             139.50,167.50 133.50,160.00 133.50,160.00
             133.50,160.00 137.00,174.00 137.00,174.00
             137.00,174.00 148.50,176.00 148.50,176.00
             148.50,176.00 149.00,186.00 149.00,186.00
             149.00,186.00 138.50,184.00 138.50,184.00
             138.50,184.00 129.00,184.00 129.00,184.00
             129.00,184.00 119.50,192.00 119.50,192.00
             119.50,192.00 116.50,177.50 116.50,177.50 Z
           M 172.50,225.00
           C 172.50,225.00 180.50,211.00 180.50,211.00
             180.50,211.00 206.00,228.00 206.00,228.00
             206.00,228.00 209.00,211.00 209.00,211.00
             209.00,211.00 218.00,218.00 217.50,218.50
             217.00,219.00 210.50,231.50 210.50,231.50
             210.50,231.50 195.50,235.50 195.50,235.50
             195.50,235.50 191.50,225.00 191.50,225.00
             191.50,225.00 176.00,233.50 176.00,233.50
             176.00,233.50 172.50,225.00 172.50,225.00 Z
           M 213.00,181.50
           C 213.00,181.50 239.50,164.50 239.50,164.50
             239.50,164.50 260.50,169.50 260.50,169.50
             260.50,169.50 265.50,182.50 265.50,182.50
             265.50,182.50 257.00,189.50 257.00,189.50
             257.00,189.50 248.50,176.00 249.50,176.00
             250.50,176.00 229.50,186.50 229.50,186.50
             229.50,186.50 243.50,193.50 243.50,193.50
             243.50,193.50 230.00,195.00 230.00,195.00
             230.00,195.00 220.50,182.00 220.50,182.00
             220.50,182.00 213.00,181.50 213.00,181.50 Z
           M 140.00,124.00
           C 140.50,124.00 156.50,115.00 156.50,115.00
             156.50,115.00 173.00,118.50 174.00,119.00
             175.00,119.50 180.00,127.00 180.00,127.00
             180.00,127.00 196.50,127.00 196.50,127.00
             196.50,127.00 180.00,135.00 180.00,135.00
             180.00,135.00 169.00,128.50 169.00,128.50
             169.00,128.50 156.50,122.00 156.50,122.00
             156.50,122.00 163.00,133.50 164.00,133.50
             165.00,133.50 164.50,139.50 164.50,139.50
             164.50,139.50 145.50,143.00 145.50,143.00
             145.50,143.00 153.50,130.50 153.50,130.50
             153.50,130.50 139.50,124.00 140.00,124.00 Z
           M 308.50,126.50
           C 308.50,126.50 326.50,112.00 326.50,112.00
             326.50,112.00 349.00,116.00 350.00,116.00
             351.00,116.00 365.50,129.50 365.50,129.50
             365.50,129.50 355.50,133.00 355.50,133.00
             355.50,133.00 347.00,126.00 347.50,125.00
             348.00,124.00 337.50,120.50 337.50,120.50
             337.50,120.50 342.50,134.50 342.50,135.50
             342.50,136.50 333.00,138.00 333.00,138.00
             333.00,138.00 326.50,127.50 326.50,127.50
             326.50,127.50 318.50,130.50 318.50,130.50
             318.50,130.50 318.50,144.00 318.50,144.00
             318.50,144.00 324.00,154.50 324.00,154.50
             324.00,154.50 313.50,161.00 313.50,161.00
             313.50,161.00 311.00,145.00 311.00,145.00
             311.00,145.00 297.50,144.50 297.50,144.50
             297.50,144.50 291.50,127.50 291.50,127.50
             291.50,127.50 303.00,128.50 302.50,129.50
             302.00,130.50 308.50,126.50 308.50,126.50 Z" />
  <path id="ob_5"
        fill="lawngreen" stroke="limegreen" stroke-width="5"
        d="M 291.00,98.00
           C 290.67,98.33 298.67,95.67 298.67,95.67
             298.67,95.67 304.33,108.67 304.33,108.67
             304.33,108.67 300.33,112.33 300.33,112.33
             300.33,112.33 291.33,97.67 291.00,98.00 Z
           M 228.67,157.00
           C 228.67,157.00 240.00,154.00 240.00,154.00
             240.00,154.00 241.00,159.00 241.00,159.00
             241.00,159.00 232.00,162.33 231.33,162.33
             230.67,162.33 228.67,157.00 228.67,157.00 Z
           M 205.33,174.33
           C 205.33,174.33 220.00,171.00 220.00,171.00
             220.00,171.00 220.00,178.67 220.00,178.67
             220.00,178.67 209.33,179.67 209.33,179.67
             209.33,179.67 205.33,174.33 205.33,174.33 Z
           M 244.00,184.67
           C 244.00,184.67 258.67,184.33 258.67,184.33
             258.67,184.33 258.67,187.00 258.67,187.00
             258.67,187.00 246.00,187.67 246.00,187.67
             246.00,187.67 244.00,184.67 244.00,184.67 Z
           M 198.33,193.00
           C 198.33,193.00 213.33,197.00 213.33,197.00
             213.33,197.00 210.00,201.33 210.00,201.33
             210.00,201.33 198.00,198.00 198.00,198.00
             198.00,198.00 198.33,193.00 198.33,193.00 Z
           M 285.33,151.67
           C 285.33,151.67 289.00,151.33 289.00,151.33
             289.00,151.33 290.33,161.67 290.33,161.67
             290.33,161.67 287.33,162.33 287.33,162.33
             287.33,162.33 285.33,151.67 285.33,151.67 Z
           M 305.33,176.67
           C 305.33,176.67 310.00,171.33 310.00,171.33
             310.00,171.33 325.00,182.67 325.00,182.67
             325.00,182.67 322.00,188.00 322.00,188.00
             322.00,188.00 305.33,176.67 305.33,176.67 Z
           M 324.00,294.00
           C 324.00,294.00 329.00,292.67 329.00,292.67
             329.00,292.67 334.00,305.00 334.00,305.00
             334.00,305.00 330.00,307.67 330.00,307.67
             330.00,307.67 324.00,294.00 324.00,294.00 Z
           M 194.00,316.33
           C 194.00,316.33 218.33,311.00 218.33,311.00
             218.33,311.00 216.00,315.33 216.00,315.67
             216.00,316.00 195.67,321.67 195.67,321.67
             195.67,321.67 194.00,316.33 194.00,316.33 Z
           M 239.33,267.67
           C 239.33,267.67 247.67,267.67 247.67,267.67
             247.67,267.67 250.00,274.00 250.00,274.00
             250.00,274.00 238.67,273.33 238.67,273.33
             238.67,273.33 239.33,267.67 239.33,267.67 Z
           M 220.33,294.33
           C 220.33,294.33 233.00,286.67 233.00,286.67
             233.00,286.67 236.33,290.33 236.33,290.33
             236.33,290.33 223.33,299.33 223.33,299.33
             223.33,299.33 220.33,294.33 220.33,294.33 Z
           M 297.67,268.33
           C 297.67,268.33 304.00,267.00 304.00,267.00
             304.00,267.00 299.00,280.33 299.00,280.33
             299.00,280.33 292.00,280.67 292.00,280.67
             292.00,280.67 297.67,268.33 297.67,268.33 Z
           M 297.00,230.33
           C 297.00,230.33 302.67,226.33 302.67,226.33
             302.67,226.33 313.00,235.67 313.00,235.67
             313.00,235.67 309.67,240.33 309.00,240.67
             308.33,241.00 297.00,230.33 297.00,230.33 Z
           M 334.67,234.00
           C 334.67,234.00 340.00,233.00 340.00,233.00
             340.00,233.00 337.00,247.33 337.00,247.33
             337.00,247.33 331.33,246.67 331.33,246.67
             331.33,246.67 334.67,234.00 334.67,234.00 Z
           M 174.33,249.67
           C 174.33,249.67 193.67,252.67 193.67,252.67
             193.67,252.67 193.33,258.67 194.00,258.67
             194.67,258.67 173.33,257.33 173.33,257.33
             173.33,257.33 174.33,249.67 174.33,249.67 Z
           M 122.50,196.00
           C 122.50,196.00 133.50,194.50 133.50,195.00
             133.50,195.50 141.00,210.00 141.00,210.00
             141.00,210.00 133.50,212.50 133.50,212.50
             133.50,212.50 122.50,196.00 122.50,196.00 Z
           M 160.00,184.00
           C 160.00,184.00 168.50,181.00 168.50,181.00
             168.50,181.00 175.00,194.50 175.00,194.50
             175.00,194.50 169.50,197.00 169.50,197.00
             169.50,197.00 160.00,184.00 160.00,184.00 Z
           M 284.50,135.50
           C 284.50,135.50 302.00,132.50 302.00,132.50
             302.00,132.50 302.50,141.00 302.50,141.00
             302.50,141.00 284.00,141.50 284.00,141.50
             284.00,141.50 284.50,135.50 284.50,135.50 Z
           M 271.00,197.50
           C 271.00,197.50 278.00,197.00 278.00,197.00
             278.00,197.00 278.50,208.50 278.50,208.50
             278.50,208.50 272.00,210.50 272.00,210.50
             272.00,210.50 271.00,197.50 271.00,197.50 Z
           M 218.50,238.00
           C 218.50,238.00 231.00,228.50 231.00,228.50
             231.00,228.50 235.50,234.00 235.50,234.00
             235.50,234.00 223.00,242.00 223.00,242.00
             223.00,242.00 218.50,238.00 218.50,238.00 Z
           M 355.50,232.00
           C 355.75,232.00 360.50,231.50 360.50,231.50
             360.50,231.50 358.75,245.00 358.75,245.00
             358.75,245.00 355.50,245.25 355.50,245.25
             355.50,245.25 355.25,232.00 355.50,232.00 Z
           M 363.25,237.25
           C 363.25,237.00 368.50,236.75 368.50,236.75
             368.50,236.75 372.50,247.75 372.50,247.75
             372.50,247.75 367.25,247.50 367.25,247.50
             367.25,247.50 363.25,237.50 363.25,237.25 Z
           M 368.50,261.75
           C 369.00,261.75 380.25,267.75 380.25,267.75
             380.25,267.75 378.50,270.00 378.25,270.25
             378.00,270.50 366.50,266.00 366.50,266.00
             366.50,266.00 368.00,261.75 368.50,261.75 Z
           M 155.75,147.75
           C 156.25,147.25 168.50,146.00 168.50,146.00
             168.50,146.00 169.00,149.50 169.00,149.50
             169.00,149.50 157.00,150.75 157.00,150.75
             157.00,150.75 155.25,148.25 155.75,147.75 Z
           M 147.00,155.50
           C 147.25,155.25 151.00,153.25 151.00,153.25
             151.00,153.25 156.25,161.50 156.25,161.50
             156.25,161.50 152.00,163.00 152.50,163.00
             153.00,163.00 146.75,155.75 147.00,155.50 Z" />
  <path id="ob_6"
        fill="lawngreen" stroke="black" stroke-width="5"
        d="M 168.67,53.00
           C 168.67,53.00 189.00,46.50 189.00,46.50
             189.00,46.50 184.33,37.00 184.33,37.00
             184.33,37.00 189.67,34.00 189.67,34.00
             189.67,34.00 196.67,40.67 196.67,40.67
             196.67,40.67 199.67,41.33 199.67,41.33
             199.67,41.33 216.00,68.50 216.00,68.50
             216.00,68.50 203.00,81.25 203.00,81.25
             203.00,81.25 185.00,63.67 185.00,63.67
             179.00,64.50 173.75,62.25 168.67,53.00 Z
           M 178.38,49.88
           C 178.38,49.88 189.06,46.50 189.06,46.50
             189.06,46.50 205.25,75.50 205.25,75.50
             205.25,75.50 178.38,49.88 178.38,49.88 Z" />
  <path id="ob_7"
        fill="darkred" stroke="black" stroke-width="5"
        d="M 199.50,81.00
           C 209.00,63.00 239.75,50.25 264.50,78.00
             273.25,86.75 270.25,114.00 265.75,119.75
             248.50,144.25 210.00,133.25 202.00,120.50
             190.75,101.75 196.00,89.75 199.50,81.00 Z" />
  <path id="ob_8"
        fill="darkred" stroke="black" stroke-width="5"
        d="M 243.00,106.50
           C 240.25,104.25 246.00,98.49 249.00,104.50
             255.38,122.25 256.50,143.75 257.50,156.75
             253.38,147.75 251.88,112.75 243.00,106.50 Z" />
</svg>
