<?xml version="1.0" encoding="UTF-8" standalone="no"?>
<!DOCTYPE svg PUBLIC "-//W3C//DTD SVG 20010904//EN"
              "http://www.w3.org/TR/2001/REC-SVG-20010904/DTD/svg10.dtd">

<svg xmlns="http://www.w3.org/2000/svg"
     viewBox="0 0 400 400">  
  <path id="em_4"
        fill="gold" stroke="black" stroke-width="5"
        d="M 22.00,181.00
           C 61.33,162.67 109.00,138.67 145.33,100.00
             160.33,84.00 198.67,74.00 205.00,96.00
             205.79,86.80 231.33,66.67 238.00,82.50
             250.67,67.33 292.00,96.00 333.00,119.50
             342.67,124.67 334.67,130.00 340.00,143.50
             352.00,140.55 360.73,132.36 366.00,134.00
             366.00,134.00 371.13,136.14 377.71,138.88
             380.20,139.92 377.47,145.78 380.18,146.91
             382.98,148.08 391.23,144.51 393.83,145.60
             400.63,148.43 406.00,150.67 406.00,150.67
             406.00,150.67 407.50,216.50 407.50,216.50
             407.50,216.50 393.91,229.60 387.00,233.75
             386.75,242.75 384.50,245.75 381.25,250.75
             378.00,256.25 364.50,266.75 354.50,268.75
             354.50,268.75 285.33,286.00 285.33,286.00
             285.33,286.00 281.67,278.33 281.67,278.33
             276.67,297.33 266.00,297.00 247.00,300.67
             247.67,300.00 167.33,316.00 167.33,316.00
             167.33,316.00 162.67,286.67 162.67,286.67
             132.50,300.75 75.25,304.00 56.67,290.67
             56.67,290.67 21.33,251.33 21.33,251.33
             21.33,251.33 22.00,181.00 22.00,181.00 Z" />
  <path id="em_6"
        fill="gold" stroke="black" stroke-width="5"
        d="M 204.88,96.38
           C 210.00,81.64 231.09,68.55 237.82,82.00
             250.73,96.91 254.64,103.52 289.09,130.91
             307.27,144.18 288.07,160.65 296.91,169.45
             315.82,149.09 331.64,160.91 334.18,178.91
             347.45,174.09 370.09,212.10 386.96,233.74
             384.73,272.00 341.73,270.55 285.19,286.06
             285.19,286.06 285.29,284.93 281.56,277.94
             288.75,262.50 281.25,258.25 275.45,247.00
             269.64,233.82 273.74,224.09 269.00,211.64
             267.36,207.55 246.00,200.36 241.00,199.00
             254.55,202.82 268.55,205.45 262.73,192.00
             260.63,188.00 254.38,182.38 252.18,182.91
             248.50,183.63 232.25,182.38 226.38,180.63
             247.25,165.63 240.38,153.38 234.50,146.00
             234.50,146.00 204.88,96.38 204.88,96.38 Z" />
  <path id="em_5"
        fill="orange" stroke="black" stroke-width="5"
        d="M 136.50,201.25
           C 136.50,185.75 164.25,181.50 173.00,183.00
             177.50,183.50 178.50,189.25 177.00,195.50
             171.25,215.25 152.25,213.75 143.75,213.25
             138.00,210.75 136.75,206.00 136.50,201.25 Z
           M 175.50,249.50
           C 177.09,246.91 185.91,242.00 188.75,242.00
             191.36,242.18 191.18,244.27 189.50,246.25
             187.82,248.09 180.64,252.82 177.75,253.50
             176.36,253.82 173.40,253.01 175.50,249.50 Z
           M 185.67,104.67
           C 190.00,98.50 196.25,97.13 202.33,102.00
             206.13,104.38 206.50,110.50 204.00,113.67
             201.38,114.13 190.88,115.25 189.67,114.67
             185.13,112.50 183.13,108.00 185.67,104.67 Z
           M 162.33,286.67
           C 179.27,280.55 207.73,262.33 217.33,256.67
             236.00,247.27 264.36,249.27 270.48,258.24
             276.55,266.18 280.36,281.82 267.36,292.12
             254.36,296.91 166.90,312.92 166.91,312.91
             166.91,312.91 162.33,286.67 162.33,286.67 Z
           M 254.25,100.75
           C 257.37,97.78 267.82,95.27 272.33,98.33
             274.91,100.18 275.09,101.64 272.33,104.67
             268.55,107.45 267.09,107.09 263.27,109.27
             263.27,109.27 254.58,100.75 254.25,100.75 Z
           M 323.00,124.00
           C 323.88,120.38 328.63,118.00 330.25,118.50
             343.88,122.63 334.50,131.50 340.00,143.38
             337.42,145.94 330.50,142.25 327.63,139.63
             322.75,135.25 321.88,127.50 323.00,124.00 Z
           M 386.93,233.76
           C 389.53,232.56 402.00,221.82 401.81,221.72
             401.81,221.72 401.52,234.00 401.52,234.00
             401.52,234.00 385.19,243.80 385.19,243.80
             386.44,240.94 387.04,236.80 386.93,233.76 Z
           M 222.91,156.18
           C 225.64,151.09 235.26,148.22 236.55,154.55
             238.00,160.18 234.18,165.82 230.00,169.09
             230.00,169.09 220.55,176.73 220.55,176.73
             218.00,167.64 219.82,160.91 222.91,156.18 Z
           M 284.50,269.50
           C 310.00,259.25 333.50,237.00 352.25,225.75
             375.56,213.79 382.00,228.25 380.00,236.00
             376.00,248.75 370.75,252.50 355.75,259.25
             344.25,263.75 297.50,275.25 281.75,277.75
             281.75,277.75 284.50,269.50 284.50,269.50 Z
           M 227.27,98.36
           C 230.73,95.45 238.18,96.18 243.27,97.82
             249.64,100.18 253.27,104.36 244.91,109.45
             245.09,109.45 231.82,114.73 231.82,114.73
             222.91,116.18 220.18,104.91 227.27,98.36 Z
           M 280.00,138.91
           C 284.36,134.73 289.82,136.55 291.45,141.64
             292.73,144.91 293.64,160.73 288.73,166.91
             286.05,169.75 278.91,163.09 276.91,158.00
             275.09,152.55 275.82,143.27 280.00,138.91 Z
           M 314.25,167.00
           C 318.00,164.18 324.45,166.09 327.00,168.75
             329.09,170.82 329.73,177.45 326.75,179.75
             322.91,182.45 317.45,182.36 312.09,180.82
             308.55,179.45 307.45,174.27 314.25,167.00 Z
           M 240.50,198.25
           C 241.00,193.75 246.25,188.63 251.13,188.63
             254.91,188.91 256.09,189.00 258.82,190.09
             262.82,192.22 262.88,197.63 260.00,199.00
             254.88,201.88 240.25,200.13 240.50,198.25 Z" />
  <path id="em_3"
        fill="lawngreen" stroke="limegreen" stroke-width="10"
        d="M 8.00,212.67
           C 8.78,215.37 -3.17,201.25 1.50,189.00
             2.75,185.50 1.00,180.75 12.50,183.50
             3.50,160.50 29.68,181.82 30.00,182.75
             23.34,172.05 46.42,182.83 49.00,179.00
             45.25,157.50 56.58,162.08 67.25,173.00
             72.25,166.50 55.00,154.75 72.25,161.25
             84.00,165.75 75.50,168.50 89.75,173.50
             96.00,163.00 93.17,175.58 103.75,182.50
             103.75,182.50 110.35,173.68 113.00,184.50
             115.25,193.68 119.04,187.55 121.25,196.25
             123.61,205.55 119.78,246.72 120.00,246.50
             95.38,230.04 28.92,299.00 -6.67,288.00
             -9.44,269.48 23.88,221.80 8.00,212.67 Z" />
  <path id="em_2"
        fill="ghostwhite" stroke="darkred" stroke-width="10"
        d="M -2.67,214.00
           C 13.33,185.33 60.67,185.33 84.67,203.33
             84.67,203.33 88.00,269.33 88.67,269.33
             80.00,300.67 12.67,296.00 -4.67,266.00
             -10.67,254.00 -9.33,226.00 -2.67,214.00 Z
           M -29.33,298.67" />
  <path id="em_1"
        fill="ghostwhite" stroke="darkred" stroke-width="10"
        d="M 39.50,202.50
           C 54.00,189.50 99.00,180.50 124.00,201.50
             138.50,216.00 150.00,251.00 127.50,267.00
             98.50,290.50 58.00,281.50 40.50,269.00
             20.50,254.00 20.00,226.00 39.50,202.50 Z" />
</svg>
