<?xml version="1.0" encoding="UTF-8" standalone="no"?>
<!DOCTYPE svg PUBLIC "-//W3C//DTD SVG 20010904//EN"
              "http://www.w3.org/TR/2001/REC-SVG-20010904/DTD/svg10.dtd">

<svg xmlns="http://www.w3.org/2000/svg"
     viewBox="0 0 470 470">
  <path id="c6"
        fill="gainsboro" stroke="black" stroke-width="5"
        d="M 88.00,180.00
           C 88.00,180.00 170.55,115.97 254.50,113.00
             352.90,109.51 455.00,167.00 455.00,167.00
             486.50,259.00 339.50,382.50 279.50,360.50
             250.50,340.00 274.38,336.94 273.88,313.44
             273.88,313.44 266.75,130.63 266.75,130.63
             266.75,130.63 116.73,238.36 116.73,238.36
             116.73,238.36 112.50,247.00 112.50,247.00
             93.00,239.00 86.50,191.50 88.00,180.00 Z" />
  <path id="c7"
        fill="khaki" stroke="black" stroke-width="5"
        d="M 117.25,236.88
           C 117.25,236.88 267.50,122.50 267.50,122.50
             267.50,122.50 275.50,318.50 275.50,318.50
             275.50,318.50 272.00,348.13 272.00,348.13
             253.35,354.69 254.28,253.42 265.25,132.75
             263.13,145.00 258.38,225.25 258.50,232.50
             258.50,232.50 121.50,300.00 121.50,300.00
             111.08,310.97 107.88,246.73 117.25,236.88 Z" />
  <path id="c4"
        fill="gainsboro" stroke="black" stroke-width="5"
        d="M 120.50,89.50
           C 123.67,63.67 184.33,33.00 197.50,41.50
             198.45,30.82 260.00,24.33 265.50,32.50
             270.00,26.00 325.33,31.33 332.00,42.50
             340.73,29.95 406.14,76.77 402.50,82.00
             466.67,137.33 467.33,199.33 432.00,246.50
             443.72,256.55 369.29,307.54 360.00,297.67
             362.37,309.58 275.37,321.02 274.00,313.00
             274.00,313.00 265.50,134.50 265.50,134.50
             265.50,134.50 188.50,195.50 188.50,195.50
             188.50,195.50 116.50,238.50 116.50,238.50
             116.50,238.50 102.00,215.00 102.00,215.00
             90.33,204.00 77.00,153.00 120.50,89.50 Z" />
  <path id="c5"
        fill="none" stroke="black" stroke-width="5"
        d="M 331.88,42.38
           C 322.41,40.29 356.35,296.53 359.63,297.25M 265.36,32.55
           C 265.36,32.55 265.36,134.73 265.36,134.73M 197.75,41.75
           C 197.75,41.75 185.55,197.09 185.55,197.09M 120.75,89.13
           C 120.75,89.13 102.42,215.38 102.42,215.38M 402.38,82.00
           C 400.50,121.00 414.00,205.00 431.75,246.25" />
  <path id="c1"
        fill="gainsboro" stroke="black" stroke-width="5"
        d="M 31.33,229.33
           C 60.84,224.23 141.00,260.33 224.00,276.00
             224.00,276.00 41.33,351.33 41.33,351.33
             17.57,356.15 4.79,234.71 31.33,229.33 Z" />
  <path id="c2"
        fill="khaki" stroke="black" stroke-width="5"
        d="M 225.25,275.75
           C 223.13,275.66 225.12,321.53 227.64,321.64
             188.33,337.67 74.33,412.00 49.50,417.50
             48.24,417.03 47.28,396.56 53.33,383.67
             59.67,370.67 33.33,367.74 39.00,352.00
             39.00,352.00 225.25,275.75 225.25,275.75 Z" />
  <path id="c3"
        fill="gainsboro" stroke="black" stroke-width="5"
        d="M 7.00,330.00
           C 5.33,278.67 22.54,226.75 25.08,232.83
             7.27,256.36 19.45,347.27 39.50,352.00
             32.55,364.00 55.53,372.99 54.33,378.67
             55.63,386.25 45.50,388.00 49.63,417.88
             44.56,420.88 7.67,354.00 7.00,330.00 Z" />
</svg>
