<?xml version="1.0" encoding="UTF-8" standalone="no"?>
<!DOCTYPE svg PUBLIC "-//W3C//DTD SVG 20010904//EN"
              "http://www.w3.org/TR/2001/REC-SVG-20010904/DTD/svg10.dtd">

<svg xmlns="http://www.w3.org/2000/svg"
     viewBox="0 0 1200 1200">
  <path id="b3"
        fill="chocolate" stroke="black" stroke-width="10"
        d="M 584.67,192.00
           C 597.35,187.59 704.62,274.86 732.67,288.00
             898.42,361.91 1183.77,519.03 1182.00,520.50
             1208.00,528.00 1170.00,539.33 1172.00,635.33
             1049.33,712.00 822.97,882.05 674.00,951.33
             545.33,1026.00 586.67,1036.00 492.67,990.67
             412.00,950.00 180.00,803.00 36.00,608.00
             21.00,558.00 12.67,534.67 8.00,509.33
             -30.00,460.83 81.00,427.33 110.00,415.33
             149.80,395.63 586.89,210.73 584.67,192.00 Z" />
  <path id="b2"
        fill="darksalmon" stroke="black" stroke-width="10"
        d="M 588.00,195.00
           C 600.68,190.59 704.62,274.86 732.67,288.00
             898.42,361.91 1183.77,519.03 1182.00,520.50
             1186.00,507.48 847.04,715.85 600.67,815.33
             525.17,843.33 558.67,854.67 448.00,823.33
             353.33,798.00 62.00,571.00 13.00,510.50
             -25.00,462.00 80.00,431.00 109.00,419.00
             148.80,399.29 590.22,213.73 588.00,195.00 Z" />
  <path id="b1"
        fill="darksalmon" stroke="darksalmon" stroke-width="10"
        d="M 621.00,217.50
           C 633.68,213.09 704.62,274.86 732.67,288.00
             898.42,361.91 1146.27,498.03 1144.50,499.50
             1148.66,500.87 890.50,673.00 644.00,761.50
             568.50,789.50 507.00,816.00 424.50,778.50
             380.00,758.00 168.50,596.00 118.50,556.50
             57.00,505.50 77.00,477.00 106.50,453.00
             145.00,422.50 620.88,216.80 621.00,217.50 Z" />
</svg>
