<?xml version="1.0" encoding="UTF-8" standalone="no"?>
<!DOCTYPE svg PUBLIC "-//W3C//DTD SVG 20010904//EN"
              "http://www.w3.org/TR/2001/REC-SVG-20010904/DTD/svg10.dtd">

<svg xmlns="http://www.w3.org/2000/svg"
     viewBox="0 0 250 250">
  <path id="b1"
        fill="maroon" stroke="black" stroke-width="1"
        d="M 33.00,118.75
           C 35.25,93.00 52.55,82.00 65.82,82.36
             95.45,83.82 104.73,102.00 104.18,121.64
             101.82,156.73 85.09,157.27 65.82,156.18
             41.27,153.45 33.00,127.25 33.00,118.75 Z
           M 86.73,164.55M 32.25,124.75
           C 31.75,108.50 33.50,92.00 54.00,79.50
             74.00,66.75 124.63,35.25 133.00,32.50
             147.13,27.88 181.50,19.38 203.00,30.00
             205.55,31.55 209.13,37.75 210.50,44.75
             212.63,52.63 207.50,63.75 196.25,67.50
             118.00,98.50 102.50,127.00 102.50,145.25
             96.25,157.25 71.75,160.00 57.50,155.00
             48.00,151.50 32.00,135.75 32.25,124.75 Z" />
  <path id="b2"
        fill="ghostwhite" stroke="black" stroke-width="1"
        d="M 38.00,103.64
           C 38.00,103.64 45.82,94.18 45.82,94.18
             45.82,94.18 52.55,104.18 53.09,104.36
             54.30,109.87 41.82,108.18 38.00,103.64 Z
           M 62.00,88.18
           C 62.00,88.18 72.18,84.00 72.18,84.00
             72.18,84.00 78.00,93.09 78.00,93.09
             78.00,93.09 65.27,95.27 65.27,95.27
             65.27,95.27 62.00,88.18 62.00,88.18 Z
           M 79.45,97.64
           C 79.45,97.82 87.27,92.18 87.45,92.18
             87.64,92.18 92.00,96.36 92.00,96.36
             92.00,96.36 85.45,102.91 85.45,102.91
             85.45,102.91 79.45,97.45 79.45,97.64 Z
           M 80.91,103.27
           C 80.91,103.27 88.91,107.64 88.91,107.64
             88.91,107.64 94.91,108.36 94.91,108.36
             94.91,108.36 99.09,116.91 99.09,116.91
             99.09,116.91 89.09,117.27 89.09,117.27
             89.09,117.27 82.00,114.91 82.00,114.91
             82.00,114.91 80.91,103.27 80.91,103.27 Z
           M 69.45,101.45
           C 69.45,101.45 71.82,104.36 71.82,104.36
             71.82,104.36 72.36,112.55 72.36,112.55
             72.36,112.55 65.64,109.09 65.64,109.09
             65.64,109.09 69.45,101.45 69.45,101.45 Z
           M 50.18,114.18
           C 50.18,114.18 55.27,110.36 55.45,110.36
             55.64,110.36 61.09,112.18 61.09,112.18
             61.09,112.18 59.45,117.82 59.45,117.82
             59.45,117.82 50.18,114.18 50.18,114.18 Z
           M 56.18,122.36
           C 56.18,122.36 62.36,122.18 63.45,122.18
             64.55,122.18 67.27,125.64 67.64,126.18
             68.00,126.73 62.36,131.82 62.36,131.82
             62.36,131.82 57.82,130.36 57.82,130.36
             57.82,130.36 56.18,122.36 56.18,122.36 Z
           M 80.91,125.09
           C 80.91,125.09 88.00,119.82 88.00,119.82
             88.00,119.82 95.45,126.73 95.45,126.73
             95.45,126.73 91.64,133.09 91.64,133.09
             91.64,133.09 80.91,125.09 80.91,125.09 Z
           M 74.36,117.27
           C 74.36,117.27 81.64,118.18 81.64,118.18
             81.64,118.18 76.00,127.09 75.64,127.27
             75.27,127.45 72.18,124.55 72.18,124.55
             72.18,124.55 74.36,117.27 74.36,117.27 Z
           M 37.82,111.64
           C 37.82,111.64 41.09,109.64 41.27,109.82
             41.45,110.00 42.73,115.45 42.73,115.45
             42.73,115.45 40.36,117.45 40.36,117.45
             40.36,117.45 37.82,111.64 37.82,111.64 Z
           M 44.73,137.64
           C 44.73,137.64 51.27,135.45 51.64,135.45
             52.00,135.45 60.00,145.09 60.00,145.09
             60.00,145.09 59.82,151.64 59.82,151.64
             59.82,151.64 44.73,137.64 44.73,137.64 Z
           M 73.45,149.27
           C 73.45,149.27 85.09,140.73 85.09,140.73
             85.09,140.73 96.36,141.82 96.36,141.82
             96.36,141.82 88.18,151.27 88.18,151.27
             88.18,151.27 78.55,152.36 78.55,152.36
             78.55,152.36 73.45,149.27 73.45,149.27 Z
           M 66.18,139.82
           C 66.18,139.82 69.64,148.00 69.64,148.00
             69.64,148.00 63.45,142.36 63.45,142.36
             63.45,142.36 66.18,139.82 66.18,139.82 Z" />
  <path id="b3"
        fill="limegreen" stroke="lawngreen" stroke-width="1"
        d="M 127.45,94.73
           C 127.45,94.73 121.64,88.91 121.64,88.91
             121.64,88.91 122.55,76.00 122.55,76.00
             122.55,76.00 138.18,78.91 138.18,78.91
             138.18,78.91 141.82,93.64 141.82,94.00
             141.82,94.36 142.55,98.00 142.55,98.18
             142.55,98.36 147.27,93.82 147.27,93.82
             147.27,93.82 147.27,87.82 147.27,87.82
             147.27,87.82 153.82,85.64 153.82,85.64
             153.82,85.64 156.73,92.18 156.91,92.36
             157.09,92.55 155.27,102.00 155.27,102.00
             155.27,102.00 145.27,107.64 145.27,107.64
             145.27,107.64 138.36,110.36 138.36,110.36
             138.36,110.36 120.18,108.73 120.18,108.73
             120.18,108.73 109.64,99.45 109.64,99.45
             109.64,99.45 115.45,94.36 115.45,94.36
             115.45,94.36 127.45,94.73 127.45,94.73 Z
           M 163.64,95.45
           C 163.64,95.45 164.55,82.00 164.55,82.00
             164.55,82.00 175.64,66.00 175.64,66.00
             175.64,66.00 183.64,80.73 183.64,80.73
             183.64,80.73 189.27,90.91 189.27,90.91
             189.27,90.91 190.18,76.91 190.18,76.91
             190.18,76.91 201.09,66.55 201.09,66.55
             201.09,66.55 209.64,81.82 209.64,81.82
             209.64,81.82 222.55,79.27 222.73,79.27
             222.91,79.27 233.64,83.45 233.45,83.64
             233.27,83.82 232.18,90.00 232.18,90.00
             232.18,90.00 220.36,91.45 220.36,91.45
             220.36,91.45 222.91,95.64 223.45,95.64
             224.00,95.64 206.73,100.36 207.45,100.00
             208.18,99.64 213.82,106.18 213.82,106.18
             213.82,106.18 206.18,107.64 206.18,107.64
             206.18,107.64 193.45,99.64 193.45,99.64
             193.45,99.64 163.64,95.45 163.64,95.45 Z
           M 106.73,120.36
           C 106.73,120.36 107.09,114.36 107.09,114.36
             107.09,114.36 111.27,113.45 111.27,113.45
             111.27,113.45 107.64,109.09 107.64,109.09
             107.64,109.09 110.00,107.27 110.18,107.09
             110.36,106.91 120.55,109.64 120.55,109.64
             120.55,109.64 139.64,112.00 139.64,112.00
             139.64,112.00 140.18,127.64 140.18,127.64
             140.18,127.64 129.27,132.36 129.27,132.36
             129.27,132.36 126.36,123.45 126.36,123.45
             126.36,123.45 121.45,127.64 121.45,127.64
             121.45,127.64 117.82,127.45 117.82,127.45
             117.82,127.45 116.73,122.55 116.73,122.55
             116.73,122.55 112.18,124.36 112.18,124.36
             112.18,124.36 111.09,121.09 111.09,121.09
             111.09,121.09 106.73,120.36 106.73,120.36 Z" />
  <path id="b4"
        fill="lawngreen" stroke="limegreen" stroke-width="1"
        d="M 169.82,105.27
           C 169.82,105.27 166.36,96.55 166.36,96.55
             166.36,96.55 176.55,88.91 176.55,88.91
             176.55,88.91 182.73,97.27 182.55,97.09
             182.36,96.91 190.00,96.91 190.00,96.91
             190.00,96.91 192.91,107.09 192.91,107.09
             192.91,107.09 183.45,112.00 183.45,112.00
             183.45,112.00 189.27,113.45 189.27,113.45
             189.27,113.45 191.45,120.18 191.45,120.91
             191.45,121.64 187.09,137.64 186.91,138.00
             186.73,138.36 172.18,135.82 172.18,135.82
             172.18,135.82 161.64,128.55 161.64,128.55
             161.64,128.55 162.55,121.82 162.55,121.82
             162.55,121.82 151.09,123.27 151.09,123.27
             151.09,123.27 147.09,115.45 147.09,115.09
             147.09,114.73 150.91,105.27 150.91,105.27
             150.91,105.27 153.45,97.45 153.45,97.45
             153.45,97.45 161.82,98.91 161.82,98.91
             161.82,98.91 169.82,105.27 169.82,105.27 Z" />
  <path id="b6"
        fill="maroon" stroke="black" stroke-width="1"
        d="M 221.82,147.82
           C 227.41,155.28 216.09,177.91 194.91,182.36
             168.00,186.36 153.45,175.09 152.64,169.36
             149.18,131.73 200.64,116.00 221.82,147.82 Z
           M 163.82,141.45
           C 185.84,120.99 209.27,134.00 218.55,143.27
             238.91,167.82 213.09,182.73 197.09,187.64
             177.27,193.64 163.27,184.91 157.09,177.64
             146.18,165.09 156.36,147.82 163.82,141.45 Z" />
  <path id="b7"
        fill="ghostwhite" stroke="black" stroke-width="1"
        d="M 196.75,134.13
           C 196.75,134.13 204.13,136.00 204.38,136.00
             204.63,136.00 197.38,138.13 197.38,138.13
             197.38,138.13 196.75,134.13 196.75,134.13 Z
           M 202.50,141.88
           C 202.50,141.88 209.00,139.25 209.00,139.25
             209.00,139.25 214.13,141.88 214.13,141.88
             214.13,141.88 206.25,148.75 206.25,148.75
             206.25,148.75 202.50,141.88 202.50,141.88 Z
           M 194.13,139.25
           C 194.13,139.25 197.13,148.13 197.13,148.13
             197.13,148.13 189.88,148.88 189.88,148.88
             189.88,148.88 189.75,141.13 189.75,141.25
             189.75,141.38 194.13,139.25 194.13,139.25 Z
           M 182.75,135.00
           C 182.75,135.00 186.75,134.00 186.75,134.00
             186.75,134.00 189.00,134.63 189.38,135.25
             189.75,135.88 183.75,138.25 183.75,138.25
             183.75,138.25 182.75,135.00 182.75,135.00 Z
           M 174.00,141.00
           C 174.00,141.00 175.13,136.88 175.13,136.75
             175.13,136.63 181.00,137.75 181.00,137.75
             181.00,137.75 182.88,141.63 182.88,141.63
             182.88,141.63 174.00,141.00 174.00,141.00 Z
           M 168.00,151.50
           C 168.00,151.38 174.88,144.63 174.88,144.63
             174.88,144.63 181.50,144.38 181.50,144.38
             181.50,144.38 184.38,150.13 184.38,150.25
             184.38,150.38 175.75,154.13 175.75,154.25
             175.75,154.38 168.00,151.63 168.00,151.50 Z
           M 157.25,165.00
           C 157.25,165.00 163.50,156.00 163.50,156.00
             163.50,156.00 169.38,157.25 169.38,157.25
             169.38,157.25 173.00,168.88 173.00,168.88
             173.00,168.88 160.00,170.50 160.00,170.50
             160.00,170.50 157.25,165.00 157.25,165.00 Z
           M 179.13,158.63
           C 179.13,158.63 187.50,159.50 187.50,159.50
             187.50,159.50 194.50,166.13 194.50,166.13
             194.50,166.13 189.25,169.50 189.25,169.50
             189.25,169.50 184.50,165.00 184.50,165.00
             184.50,165.00 179.75,165.13 179.75,165.13
             179.75,165.13 179.13,158.63 179.13,158.63 Z
           M 207.38,152.13
           C 207.38,152.13 213.00,148.25 213.00,148.25
             213.00,148.25 217.38,153.75 217.38,153.75
             217.38,153.75 216.25,161.13 216.25,161.13
             216.25,161.13 207.38,152.13 207.38,152.13 Z
           M 200.88,165.63
           C 200.88,165.63 207.50,159.88 207.50,159.88
             207.50,159.88 212.88,162.00 212.88,162.00
             212.88,162.00 207.88,170.13 207.88,170.13
             207.88,170.13 199.88,170.50 199.88,170.50
             199.88,170.50 200.88,165.63 200.88,165.63 Z
           M 179.38,178.13
           C 179.38,178.13 186.75,176.25 186.75,176.25
             186.75,176.25 189.63,179.13 189.63,179.13
             189.63,179.13 185.38,180.88 185.63,180.88
             185.88,180.88 179.38,178.13 179.38,178.13 Z
           M 168.13,175.38
           C 168.13,175.38 178.38,169.75 178.38,169.75
             178.38,169.75 184.75,172.63 184.75,172.63
             184.75,172.63 168.13,175.38 168.13,175.38 Z" />
  <path id="b8"
        fill="maroon" stroke="black" stroke-width="1"
        d="M 181.09,165.27
           C 186.68,172.74 175.36,195.36 154.18,199.82
             127.27,203.82 112.73,192.55 111.91,186.82
             108.45,149.18 159.91,133.45 181.09,165.27 Z
           M 122.55,158.73
           C 144.57,138.26 168.00,151.27 177.27,160.55
             197.64,185.09 171.82,200.00 155.82,204.91
             136.00,210.91 122.00,202.18 115.82,194.91
             104.91,182.36 115.09,165.09 122.55,158.73 Z" />
  <path id="b9"
        fill="ghostwhite" stroke="black" stroke-width="1"
        d="M 163.02,160.58
           C 163.02,160.58 170.40,162.45 170.65,162.45
             170.90,162.45 163.65,164.58 163.65,164.58
             163.65,164.58 163.02,160.58 163.02,160.58 Z
           M 152.95,169.97
           C 152.95,169.97 159.45,167.34 159.45,167.34
             159.45,167.34 164.58,169.97 164.58,169.97
             164.58,169.97 156.70,176.84 156.70,176.84
             156.70,176.84 152.95,169.97 152.95,169.97 Z
           M 155.13,154.25
           C 155.13,154.25 158.13,163.13 158.13,163.13
             158.13,163.13 150.88,163.88 150.88,163.88
             150.88,163.88 150.75,156.13 150.75,156.25
             150.75,156.38 155.13,154.25 155.13,154.25 Z
           M 136.66,154.73
           C 136.66,154.73 140.66,153.73 140.66,153.73
             140.66,153.73 142.91,154.35 143.28,154.98
             143.66,155.60 137.66,157.98 137.66,157.98
             137.66,157.98 136.66,154.73 136.66,154.73 Z
           M 125.73,162.18
           C 125.73,162.18 126.85,158.06 126.85,157.93
             126.85,157.81 132.73,158.93 132.73,158.93
             132.73,158.93 134.60,162.81 134.60,162.81
             134.60,162.81 125.73,162.18 125.73,162.18 Z
           M 133.55,168.68
           C 133.55,168.56 140.42,161.81 140.42,161.81
             140.42,161.81 147.05,161.56 147.05,161.56
             147.05,161.56 149.92,167.31 149.92,167.43
             149.92,167.56 141.30,171.31 141.30,171.43
             141.30,171.56 133.55,168.81 133.55,168.68 Z
           M 117.89,178.73
           C 117.89,178.73 124.14,169.73 124.14,169.73
             124.14,169.73 130.01,170.98 130.01,170.98
             130.01,170.98 133.64,182.60 133.64,182.60
             133.64,182.60 120.64,184.23 120.64,184.23
             120.64,184.23 117.89,178.73 117.89,178.73 Z
           M 138.31,176.17
           C 138.31,176.17 146.68,177.05 146.68,177.05
             146.68,177.05 153.68,183.67 153.68,183.67
             153.68,183.67 148.43,187.05 148.43,187.05
             148.43,187.05 143.68,182.55 143.68,182.55
             143.68,182.55 138.93,182.67 138.93,182.67
             138.93,182.67 138.31,176.17 138.31,176.17 Z
           M 164.56,174.58
           C 164.56,174.58 170.18,170.70 170.18,170.70
             170.18,170.70 174.56,176.20 174.56,176.20
             174.56,176.20 173.43,183.58 173.43,183.58
             173.43,183.58 164.56,174.58 164.56,174.58 Z
           M 157.15,188.63
           C 157.15,188.63 163.77,182.88 163.77,182.88
             163.77,182.88 169.15,185.00 169.15,185.00
             169.15,185.00 164.15,193.13 164.15,193.13
             164.15,193.13 156.15,193.50 156.15,193.50
             156.15,193.50 157.15,188.63 157.15,188.63 Z
           M 140.38,193.13
           C 140.38,193.13 147.75,191.25 147.75,191.25
             147.75,191.25 150.63,194.13 150.63,194.13
             150.63,194.13 146.38,195.88 146.63,195.88
             146.88,195.88 140.38,193.13 140.38,193.13 Z
           M 121.49,191.65
           C 121.49,191.65 131.74,186.02 131.74,186.02
             131.74,186.02 138.11,188.90 138.11,188.90
             138.11,188.90 121.49,191.65 121.49,191.65 Z" />
  <path id="b10"
        fill="maroon" stroke="black" stroke-width="1"
        d="M 134.09,166.27
           C 139.68,173.74 128.36,196.36 107.18,200.82
             80.27,204.82 65.73,193.55 64.91,187.82
             61.45,150.18 112.91,134.45 134.09,166.27 Z
           M 75.55,159.73
           C 97.57,139.26 121.00,152.27 130.27,161.55
             150.64,186.09 124.82,201.00 108.82,205.91
             89.00,211.91 75.00,203.18 68.82,195.91
             57.91,183.36 68.09,166.09 75.55,159.73 Z" />
  <path id="b11"
        fill="ghostwhite" stroke="black" stroke-width="1"
        d="M 119.02,160.58
           C 119.02,160.58 126.40,162.45 126.65,162.45
             126.90,162.45 119.65,164.58 119.65,164.58
             119.65,164.58 119.02,160.58 119.02,160.58 Z
           M 108.95,169.97
           C 108.95,169.97 115.45,167.34 115.45,167.34
             115.45,167.34 120.58,169.97 120.58,169.97
             120.58,169.97 112.70,176.84 112.70,176.84
             112.70,176.84 108.95,169.97 108.95,169.97 Z
           M 111.13,154.25
           C 111.13,154.25 114.13,163.13 114.13,163.13
             114.13,163.13 106.88,163.88 106.88,163.88
             106.88,163.88 106.75,156.13 106.75,156.25
             106.75,156.38 111.13,154.25 111.13,154.25 Z
           M 92.66,154.73
           C 92.66,154.73 96.66,153.73 96.66,153.73
             96.66,153.73 98.91,154.35 99.28,154.98
             99.66,155.60 93.66,157.98 93.66,157.98
             93.66,157.98 92.66,154.73 92.66,154.73 Z
           M 81.73,162.18
           C 81.73,162.18 82.85,158.06 82.85,157.93
             82.85,157.81 88.73,158.93 88.73,158.93
             88.73,158.93 90.60,162.81 90.60,162.81
             90.60,162.81 81.73,162.18 81.73,162.18 Z
           M 89.55,168.68
           C 89.55,168.56 96.42,161.81 96.42,161.81
             96.42,161.81 103.05,161.56 103.05,161.56
             103.05,161.56 105.92,167.31 105.92,167.43
             105.92,167.56 97.30,171.31 97.30,171.43
             97.30,171.56 89.55,168.81 89.55,168.68 Z
           M 73.89,178.73
           C 73.89,178.73 80.14,169.73 80.14,169.73
             80.14,169.73 86.01,170.98 86.01,170.98
             86.01,170.98 89.64,182.60 89.64,182.60
             89.64,182.60 76.64,184.23 76.64,184.23
             76.64,184.23 73.89,178.73 73.89,178.73 Z
           M 94.31,176.17
           C 94.31,176.17 102.68,177.05 102.68,177.05
             102.68,177.05 109.68,183.67 109.68,183.67
             109.68,183.67 104.43,187.05 104.43,187.05
             104.43,187.05 99.68,182.55 99.68,182.55
             99.68,182.55 94.93,182.67 94.93,182.67
             94.93,182.67 94.31,176.17 94.31,176.17 Z
           M 120.56,174.58
           C 120.56,174.58 126.18,170.70 126.18,170.70
             126.18,170.70 130.56,176.20 130.56,176.20
             130.56,176.20 129.43,183.58 129.43,183.58
             129.43,183.58 120.56,174.58 120.56,174.58 Z
           M 113.15,188.63
           C 113.15,188.63 119.77,182.88 119.77,182.88
             119.77,182.88 125.15,185.00 125.15,185.00
             125.15,185.00 120.15,193.13 120.15,193.13
             120.15,193.13 112.15,193.50 112.15,193.50
             112.15,193.50 113.15,188.63 113.15,188.63 Z
           M 96.38,193.13
           C 96.38,193.13 103.75,191.25 103.75,191.25
             103.75,191.25 106.63,194.13 106.63,194.13
             106.63,194.13 102.38,195.88 102.63,195.88
             102.88,195.88 96.38,193.13 96.38,193.13 Z
           M 77.49,191.65
           C 77.49,191.65 87.74,186.02 87.74,186.02
             87.74,186.02 94.11,188.90 94.11,188.90
             94.11,188.90 77.49,191.65 77.49,191.65 Z" />
</svg>
