<?xml version="1.0" encoding="UTF-8" standalone="no"?>
<!DOCTYPE svg PUBLIC "-//W3C//DTD SVG 20010904//EN"
              "http://www.w3.org/TR/2001/REC-SVG-20010904/DTD/svg10.dtd">

<svg xmlns="http://www.w3.org/2000/svg"
     viewBox="0 0 600 600">
  <path id="r0"
        fill="lawngreen" stroke="limegreen" stroke-width="5"
        d="M 199.00,96.00
           C 201.00,95.50 432.00,282.00 432.00,282.00
             432.00,282.00 306.00,155.00 305.50,156.00
             305.00,157.00 334.50,153.50 334.50,153.50
             334.50,153.50 441.00,261.00 441.00,261.00
             441.00,261.00 359.00,166.00 359.00,166.00
             359.00,166.00 400.00,169.00 400.50,168.50
             401.00,168.00 470.50,271.00 471.00,271.50
             471.50,272.00 442.00,302.50 442.00,302.50
             442.00,302.50 210.00,141.00 209.50,140.50
             209.00,140.00 197.00,96.50 199.00,96.00 Z" />
  <path id="r1"
        fill="gray" stroke="black" stroke-width="5"
        d="M 23.00,348.00
           C 27.00,272.00 49.00,225.00 183.00,220.00
             302.00,213.00 364.00,226.00 407.00,319.00
             448.00,403.00 378.00,469.00 271.00,480.00
             153.00,487.00 22.00,455.00 23.00,348.00 Z" />
  <path id="r2"
        fill="lightgrey" stroke="black" stroke-width="5"
        d="M 36.00,345.33
           C 40.00,269.33 55.33,233.00 189.33,228.00
             308.33,221.00 351.67,225.67 394.67,318.67
             435.67,402.67 375.67,453.67 268.67,464.67
             150.67,471.67 35.00,452.33 36.00,345.33 Z" />
  <path id="r3"
        fill="darkred" stroke="black" stroke-width="5"
        d="M 31.33,224.67
           C 40.50,200.50 108.50,211.00 119.33,222.00
             142.50,179.00 212.00,163.00 252.67,192.67
             359.50,188.50 381.00,285.00 329.33,302.67
             385.00,320.50 387.00,371.00 330.00,384.00
             341.50,379.50 363.00,381.00 369.33,388.00
             369.33,388.00 368.67,402.00 368.67,402.00
             368.67,402.00 355.33,406.67 355.33,406.67
             355.33,406.67 378.67,404.67 378.67,404.67
             378.67,404.67 375.33,412.67 375.33,412.67
             375.33,412.67 345.33,422.67 345.33,422.00
             345.33,421.33 333.33,442.67 333.33,442.67
             320.50,455.00 248.00,466.00 222.67,463.33
             222.67,463.33 198.00,440.00 198.00,440.00
             198.00,440.00 222.00,432.67 222.00,432.67
             222.00,432.67 222.00,424.67 222.00,424.67
             222.00,424.67 239.33,420.00 239.33,420.00
             237.13,420.45 229.73,400.09 233.33,396.67
             234.45,395.73 236.36,392.27 257.33,388.00
             245.36,386.55 238.91,386.27 232.67,379.33
             242.26,409.12 204.00,425.67 166.67,441.33
             127.00,454.67 119.59,410.04 127.33,405.33
             46.67,410.00 47.33,368.67 95.33,325.33
             55.00,312.00 12.00,276.50 31.33,224.67 Z" />
  <path id="r4"
        fill="ghostwhite" stroke="black" stroke-width="5"
        d="M 123.00,221.50
           C 155.50,169.50 239.50,170.00 260.00,209.50
             265.50,218.50 274.50,237.50 254.00,265.00
             217.50,312.50 149.00,286.50 132.00,268.50
             116.50,251.00 116.51,229.08 123.00,221.50 Z
           M 255.00,197.00
           C 266.17,188.33 361.00,211.33 347.50,262.00
             334.67,311.00 239.33,294.00 231.33,287.00
             267.33,270.33 284.33,226.67 255.00,197.00 Z
           M 28.00,245.33
           C 29.00,198.67 98.33,210.67 117.00,225.33
             109.33,243.67 120.33,282.33 150.33,296.67
             135.00,300.67 106.33,313.00 97.67,322.33
             72.67,317.00 28.00,289.33 28.00,245.33 Z
           M 101.00,325.00
           C 97.62,322.36 145.25,300.00 159.50,298.00
             176.25,295.75 200.50,318.00 202.50,325.00
             195.50,368.00 150.25,392.25 102.25,399.50
             54.00,406.50 53.25,357.75 101.00,325.00 Z
           M 229.25,304.50
           C 250.50,287.75 330.50,299.75 350.00,315.50
             383.50,340.75 365.75,359.00 348.75,371.25
             313.50,402.00 254.00,378.75 236.25,364.75
             199.00,332.00 214.75,314.50 229.25,304.50 Z
           M 241.00,419.25
           C 249.64,410.00 363.09,398.91 368.64,401.91
             368.64,401.91 354.75,406.75 354.75,406.75
             354.75,406.75 241.00,419.25 241.00,419.25 Z
           M 186.75,304.50
           C 196.75,309.54 218.91,301.82 224.67,291.67
             229.45,294.91 240.55,296.36 243.00,296.85
             224.79,298.19 205.26,322.88 208.36,324.73
             208.36,324.73 186.75,304.50 186.75,304.50 Z
           M 128.25,406.50
           C 153.00,403.42 190.75,385.00 205.83,347.08
             208.75,363.00 216.75,376.75 230.25,378.50
             237.50,411.25 200.00,423.25 154.50,441.25
             136.25,446.50 121.95,417.43 128.25,406.50 Z
           M 222.00,432.45
           C 222.00,432.45 345.27,421.82 345.27,421.82" />
  <path id="r5"
        fill="darkred" stroke="black" stroke-width="5"
        d="M 207.50,204.50
           C 234.75,193.75 288.50,197.58 315.00,222.25
             328.50,235.08 326.33,266.58 298.25,284.50
             259.08,303.08 190.25,277.25 182.33,267.67
             165.25,246.50 178.75,216.75 207.50,204.50 Z" />
  <path id="r6"
        fill="ghostwhite" stroke="black" stroke-width="5"
        d="M 207.25,208.00
           C 234.50,197.25 288.25,201.08 314.75,225.75
             328.25,238.58 322.83,265.58 294.75,283.50
             255.58,302.08 194.42,274.58 186.50,265.00
             169.42,243.83 178.50,220.25 207.25,208.00 Z" />
  <path id="r7"
        fill="darkred" stroke="black" stroke-width="5"
        d="M 545.33,358.67
           C 534.67,348.00 560.67,331.00 572.00,346.67
             590.67,425.33 548.00,483.85 560.67,517.33
             539.40,490.40 575.67,390.33 545.33,358.67 Z
           M 419.33,306.67
           C 454.33,226.67 550.00,247.33 573.00,293.33
             588.33,328.33 577.67,374.00 561.67,386.33
             538.67,404.67 457.67,409.67 437.33,389.33
             419.67,371.00 412.00,322.67 419.33,306.67 Z" />
  <path id="r8"
        fill="darkred" stroke="black" stroke-width="5"
        d="M 545.33,358.67
           C 534.67,348.00 560.67,331.00 572.00,346.67
             590.67,425.33 548.00,483.85 560.67,517.33
             539.40,490.40 575.67,390.33 545.33,358.67 Z" />
</svg>
