<?xml version="1.0" encoding="UTF-8" standalone="no"?>
<!DOCTYPE svg PUBLIC "-//W3C//DTD SVG 20010904//EN"
              "http://www.w3.org/TR/2001/REC-SVG-20010904/DTD/svg10.dtd">

<svg xmlns="http://www.w3.org/2000/svg"
     viewBox="0 0 100 100">
  <path id="g1"
        fill="black" stroke="black" stroke-width="2"
        d="M 18.50,37.06
           C 19.25,30.00 76.13,28.75 80.63,36.50
             80.63,36.50 72.73,90.18 72.73,90.18
             71.25,98.38 31.00,98.88 28.00,90.13
             28.00,90.13 18.50,37.06 18.50,37.06 Z" />
  <path id="g2"
        fill="white" stroke="none" stroke-width="1"
        d="M 26.64,82.91
           C 30.31,84.00 38.94,84.00 50.00,84.00
             39.06,84.00 31.56,84.00 26.38,81.06
             25.08,73.83 22.98,62.36 21.45,53.82
             28.36,56.00 40.45,56.00 50.00,56.00
             40.48,56.00 21.91,55.09 21.15,51.87
             20.14,46.20 19.28,41.43 18.83,38.93
             19.06,42.36 44.89,42.00 61.64,42.00
             51.94,41.57 19.36,40.62 18.50,37.06
             19.25,30.00 76.13,28.75 80.63,36.50
             83.01,40.38 50.47,41.35 32.73,42.00
             42.91,42.00 79.49,42.39 80.34,38.41
             79.97,40.94 79.26,45.75 78.42,51.46
             77.84,54.77 63.27,56.00 50.00,56.00
             63.27,56.00 75.46,56.49 78.08,53.81
             76.83,62.29 75.37,72.24 74.29,79.58
             73.69,84.00 63.94,84.00 50.00,84.00
             63.88,84.00 73.50,84.00 73.92,82.08
             73.20,86.95 72.73,90.18 72.73,90.18
             71.25,98.38 31.00,98.88 28.00,90.13
             28.00,90.13 27.35,86.91 26.64,82.91 Z" />
  <path id="g3"
        fill="black" stroke="maroon" stroke-width="1"
        d="M 21.45,53.82
           C 28.36,56.00 40.45,56.00 50.00,56.00
             40.48,56.00 21.91,55.09 21.15,51.87
             20.14,46.20 79.26,45.75 78.42,51.46
             77.84,54.77 63.27,56.00 50.00,56.00
             63.27,56.00 75.46,56.49 78.08,53.81
             76.83,62.29 72.73,90.18 72.73,90.18
             71.25,98.38 31.00,98.88 28.00,90.13
             28.00,90.13 22.98,62.36 21.45,53.82 Z" />
  <path id="g4"
        fill="ghostwhite" stroke="ghostewihte" stroke-width="1"
        d="M 64.88,49.63
           C 64.58,47.75 73.07,47.11 73.25,48.25
             73.25,48.25 74.00,53.25 74.13,53.13
             74.38,54.25 65.19,55.40 65.13,54.75
             65.13,54.75 64.88,49.63 64.88,49.63 Z
           M 25.00,48.38
           C 24.97,47.31 33.41,47.20 33.45,49.00
             33.95,48.87 36.31,51.69 35.18,54.00
             35.00,56.00 26.62,54.24 26.50,53.88
             25.17,54.16 24.30,48.53 25.00,48.38 Z
           M 41.63,49.13
           C 42.44,46.00 48.25,44.25 50.00,44.63
             52.81,45.31 58.13,49.08 57.25,50.63
             57.25,50.63 55.00,54.50 55.00,54.50
             56.28,54.72 45.81,55.36 43.75,55.00
             41.44,54.69 41.25,51.81 41.63,49.13 Z" />
</svg>
