<?xml version="1.0" encoding="UTF-8" standalone="no"?>
<!DOCTYPE svg PUBLIC "-//W3C//DTD SVG 20010904//EN"
              "http://www.w3.org/TR/2001/REC-SVG-20010904/DTD/svg10.dtd">

<svg xmlns="http://www.w3.org/2000/svg"
     viewBox="0 0 252 252">
  <path id="h1"
        fill="black" stroke="black" stroke-width="1"
        d="M 76.50,26.00
           C 82.00,11.00 102.50,-12.25 153.25,10.00
             160.82,5.57 182.37,23.87 172.75,29.50
             176.55,47.45 175.45,92.55 174.25,103.25
             174.25,103.25 164.25,236.25 164.25,236.25
             162.33,253.00 92.67,259.00 89.25,237.25
             89.25,237.25 75.50,100.75 75.50,100.75
             74.13,94.31 75.45,31.45 76.50,26.00 Z" />
  <path id="h2"
        fill="ghostwhite" stroke="ghostwhite" stroke-width="1"
        d="M 76.27,61.00
           C 76.29,60.06 75.16,59.04 75.18,58.11
             75.42,46.39 75.78,35.36 76.15,29.66
             78.31,32.00 90.63,33.00 117.88,33.00
             114.25,32.00 83.09,31.91 76.50,26.00
             82.00,11.00 102.50,-12.25 153.25,10.00
             160.82,5.57 182.37,23.87 172.75,29.50
             164.82,32.00 133.50,32.00 126.44,33.00
             146.17,33.00 167.18,32.59 173.18,31.55
             174.32,39.25 174.91,50.25 175.13,61.41
             175.15,62.28 173.61,62.00 173.63,62.88
             173.88,79.67 173.53,97.06 172.88,102.88
             172.88,102.88 167.15,180.37 164.38,217.25
             154.50,233.38 113.56,230.00 90.18,230.00
             92.36,253.09 162.36,246.73 163.82,230.00
             127.32,232.50 90.63,227.50 88.50,215.25
             84.61,176.61 76.45,100.55 76.45,100.55
             75.74,97.20 75.94,78.86 76.27,61.00 Z" />
  <path id="h3"
        fill="gold" stroke="gold" stroke-width="1"
        d="M 76.27,61.00
           C 93.64,73.45 157.82,68.91 173.63,62.88
             173.88,79.67 173.53,97.06 172.88,102.88
             172.88,102.88 167.15,180.37 164.38,217.25
             154.50,233.38 90.63,227.50 88.50,215.25
             84.61,176.61 76.45,100.55 76.45,100.55
             75.74,97.20 75.94,78.86 76.27,61.00 Z" />
</svg>
