<?xml version="1.0" encoding="UTF-8" standalone="no"?>
<!DOCTYPE svg PUBLIC "-//W3C//DTD SVG 20010904//EN"
              "http://www.w3.org/TR/2001/REC-SVG-20010904/DTD/svg10.dtd">

<svg xmlns="http://www.w3.org/2000/svg"
     viewBox="0 0 280 280">
  <path id="w1"
        fill="black" stroke="black" stroke-width="1"
        d="M 93.73,23.91
           C 94.63,20.00 107.88,12.50 113.00,14.75
             140.00,13.38 167.75,6.88 168.50,22.75
             170.96,19.18 178.45,24.22 178.25,24.50
             178.25,24.50 177.75,28.25 177.75,28.25
             180.73,41.82 181.00,73.63 179.75,80.25
             179.75,80.25 162.73,165.09 162.73,165.09
             159.64,180.36 156.00,207.82 161.75,228.25
             163.45,232.36 169.09,243.27 170.75,247.50
             172.00,249.82 172.91,256.00 169.50,258.75
             156.36,271.09 110.36,269.09 101.25,262.00
             97.27,259.09 98.09,250.96 98.73,250.00
             103.64,243.09 107.45,232.91 109.00,225.75
             114.73,201.82 111.45,197.64 109.25,164.00
             109.25,164.00 93.00,80.25 93.00,80.25
             90.55,72.73 92.91,33.45 95.00,28.50
             95.00,28.50 93.73,23.91 93.73,23.91 Z" />
  <path id="w2"
        fill="ghostwhite" stroke="ghostwhite" stroke-width="1"
        d="M 93.73,23.91
           C 94.63,20.00 107.88,12.50 113.00,14.75
             140.00,13.38 167.75,6.88 168.50,22.75
             170.96,19.18 178.45,24.22 178.25,24.50
             177.09,30.36 153.82,28.09 140.18,29.00
             156.55,29.91 174.36,29.00 177.18,28.82
             179.76,43.34 180.37,74.16 179.18,80.45
             179.18,80.45 162.73,165.09 162.73,165.09
             161.88,168.25 151.75,214.25 164.75,235.88
             159.90,250.36 127.17,241.51 124.09,249.91
             154.55,252.36 164.16,243.32 165.82,247.55
             167.07,249.86 168.41,257.25 165.00,260.00
             151.18,268.91 108.77,264.08 104.50,261.63
             100.52,258.72 103.73,248.71 104.38,247.75
             106.13,247.13 124.47,251.99 148.09,249.36
             143.20,240.63 112.54,250.87 107.27,237.36
             118.63,195.50 112.00,198.13 109.25,164.00
             109.25,164.00 93.55,80.27 93.55,80.27
             91.30,73.38 93.50,38.11 95.44,28.63
             97.56,28.75 131.73,29.42 131.91,29.00
             131.93,29.04 95.60,28.42 93.73,23.91 Z" />
  <path id="w3"
        fill="yellow" stroke="yellow" stroke-width="1"
        d="M 179.18,80.45
           C 179.18,80.45 162.73,165.09 162.73,165.09
             161.88,168.25 151.75,214.25 164.75,235.88
             159.90,250.36 112.54,250.87 107.27,237.36
             118.63,195.50 112.00,198.13 109.25,164.00
             109.25,164.00 93.55,80.27 93.55,80.27
             100.50,85.00 169.63,86.38 179.18,80.45 Z" />
</svg>
