<?xml version="1.0" encoding="UTF-8" standalone="no"?>
<!DOCTYPE svg PUBLIC "-//W3C//DTD SVG 20010904//EN"
              "http://www.w3.org/TR/2001/REC-SVG-20010904/DTD/svg10.dtd">

<svg xmlns="http://www.w3.org/2000/svg"
     viewBox="0 0 700 700">
  <path id="Unbenannt-Kopie #3"
        fill="cornflowerblue" stroke="black" stroke-width="1"
        d="M 0.33,411.17
           C 0.33,411.17 57.33,373.17 57.33,373.17
             57.33,373.17 115.33,411.17 115.33,411.17
             115.33,411.17 174.33,373.17 174.33,373.17
             174.33,373.17 234.00,411.17 234.00,411.17
             234.00,411.17 294.33,373.17 294.33,373.17
             294.33,373.17 351.33,411.17 351.33,411.17
             351.33,411.17 409.33,373.17 409.33,373.17
             409.33,373.17 470.67,411.17 470.67,411.17
             470.67,411.17 526.33,373.17 526.33,373.17
             526.33,373.17 586.33,411.17 586.33,411.17
             586.33,411.17 644.33,373.17 644.33,373.17
             644.33,373.17 700.83,411.17 700.83,411.17
             700.83,411.17 644.33,451.17 644.33,451.17
             644.33,451.17 587.83,411.17 587.83,411.17
             587.83,411.17 526.33,451.17 526.33,451.17
             526.33,451.17 470.33,411.17 470.33,411.17
             470.33,411.17 409.33,451.17 409.33,451.17
             409.33,451.17 351.83,411.17 351.83,411.17
             351.83,411.17 294.33,451.17 294.33,451.17
             294.33,451.17 233.83,411.17 233.83,411.17
             233.83,411.17 174.33,451.17 174.33,451.17
             174.33,451.17 115.83,411.17 115.83,411.17
             115.83,411.17 57.33,451.17 57.33,451.17
             57.33,451.17 0.33,411.17 0.33,411.17 Z
           M 1.00,490.50
           C 1.00,490.50 58.00,452.50 58.00,452.50
             58.00,452.50 116.00,490.50 116.00,490.50
             116.00,490.50 175.00,452.50 175.00,452.50
             175.00,452.50 234.67,490.50 234.67,490.50
             234.67,490.50 295.00,452.50 295.00,452.50
             295.00,452.50 352.00,490.50 352.00,490.50
             352.00,490.50 410.00,452.50 410.00,452.50
             410.00,452.50 471.33,490.50 471.33,490.50
             471.33,490.50 527.00,452.50 527.00,452.50
             527.00,452.50 587.00,490.50 587.00,490.50
             587.00,490.50 645.00,452.50 645.00,452.50
             645.00,452.50 701.50,490.50 701.50,490.50
             701.50,490.50 645.00,530.50 645.00,530.50
             645.00,530.50 588.50,490.50 588.50,490.50
             588.50,490.50 527.00,530.50 527.00,530.50
             527.00,530.50 471.00,490.50 471.00,490.50
             471.00,490.50 410.00,530.50 410.00,530.50
             410.00,530.50 352.50,490.50 352.50,490.50
             352.50,490.50 295.00,530.50 295.00,530.50
             295.00,530.50 234.50,490.50 234.50,490.50
             234.50,490.50 175.00,530.50 175.00,530.50
             175.00,530.50 116.50,490.50 116.50,490.50
             116.50,490.50 58.00,530.50 58.00,530.50
             58.00,530.50 1.00,490.50 1.00,490.50 Z
           M 1.00,645.50
           C 1.00,645.50 58.00,607.50 58.00,607.50
             58.00,607.50 116.00,645.50 116.00,645.50
             116.00,645.50 175.00,607.50 175.00,607.50
             175.00,607.50 234.67,645.50 234.67,645.50
             234.67,645.50 295.00,607.50 295.00,607.50
             295.00,607.50 352.00,645.50 352.00,645.50
             352.00,645.50 410.00,607.50 410.00,607.50
             410.00,607.50 471.33,645.50 471.33,645.50
             471.33,645.50 527.00,607.50 527.00,607.50
             527.00,607.50 587.00,645.50 587.00,645.50
             587.00,645.50 645.00,607.50 645.00,607.50
             645.00,607.50 701.50,645.50 701.50,645.50
             701.50,645.50 645.00,685.50 645.00,685.50
             645.00,685.50 588.50,645.50 588.50,645.50
             588.50,645.50 527.00,685.50 527.00,685.50
             527.00,685.50 471.00,645.50 471.00,645.50
             471.00,645.50 410.00,685.50 410.00,685.50
             410.00,685.50 352.50,645.50 352.50,645.50
             352.50,645.50 295.00,685.50 295.00,685.50
             295.00,685.50 234.50,645.50 234.50,645.50
             234.50,645.50 175.00,685.50 175.00,685.50
             175.00,685.50 116.50,645.50 116.50,645.50
             116.50,645.50 58.00,685.50 58.00,685.50
             58.00,685.50 1.00,645.50 1.00,645.50 Z
           M 1.00,569.00
           C 1.00,569.00 58.00,531.00 58.00,531.00
             58.00,531.00 116.00,569.00 116.00,569.00
             116.00,569.00 175.00,531.00 175.00,531.00
             175.00,531.00 234.67,569.00 234.67,569.00
             234.67,569.00 295.00,531.00 295.00,531.00
             295.00,531.00 352.00,569.00 352.00,569.00
             352.00,569.00 410.00,531.00 410.00,531.00
             410.00,531.00 471.33,569.00 471.33,569.00
             471.33,569.00 527.00,531.00 527.00,531.00
             527.00,531.00 587.00,569.00 587.00,569.00
             587.00,569.00 645.00,531.00 645.00,531.00
             645.00,531.00 701.50,569.00 701.50,569.00
             701.50,569.00 645.00,609.00 645.00,609.00
             645.00,609.00 588.50,569.00 588.50,569.00
             588.50,569.00 527.00,609.00 527.00,609.00
             527.00,609.00 471.00,569.00 471.00,569.00
             471.00,569.00 410.00,609.00 410.00,609.00
             410.00,609.00 352.50,569.00 352.50,569.00
             352.50,569.00 295.00,609.00 295.00,609.00
             295.00,609.00 234.50,569.00 234.50,569.00
             234.50,569.00 175.00,609.00 175.00,609.00
             175.00,609.00 116.50,569.00 116.50,569.00
             116.50,569.00 58.00,609.00 58.00,609.00
             58.00,609.00 1.00,569.00 1.00,569.00 Z
           M 1.00,334.50
           C 1.00,334.50 58.00,296.50 58.00,296.50
             58.00,296.50 116.00,334.50 116.00,334.50
             116.00,334.50 175.00,296.50 175.00,296.50
             175.00,296.50 234.67,334.50 234.67,334.50
             234.67,334.50 295.00,296.50 295.00,296.50
             295.00,296.50 352.00,334.50 352.00,334.50
             352.00,334.50 410.00,296.50 410.00,296.50
             410.00,296.50 471.33,334.50 471.33,334.50
             471.33,334.50 527.00,296.50 527.00,296.50
             527.00,296.50 587.00,334.50 587.00,334.50
             587.00,334.50 645.00,296.50 645.00,296.50
             645.00,296.50 701.50,334.50 701.50,334.50
             701.50,334.50 645.00,374.50 645.00,374.50
             645.00,374.50 588.50,334.50 588.50,334.50
             588.50,334.50 527.00,374.50 527.00,374.50
             527.00,374.50 471.00,334.50 471.00,334.50
             471.00,334.50 410.00,374.50 410.00,374.50
             410.00,374.50 352.50,334.50 352.50,334.50
             352.50,334.50 295.00,374.50 295.00,374.50
             295.00,374.50 234.50,334.50 234.50,334.50
             234.50,334.50 175.00,374.50 175.00,374.50
             175.00,374.50 116.50,334.50 116.50,334.50
             116.50,334.50 58.00,374.50 58.00,374.50
             58.00,374.50 1.00,334.50 1.00,334.50 Z
           M 1.00,256.00
           C 1.00,256.00 58.00,218.00 58.00,218.00
             58.00,218.00 116.00,256.00 116.00,256.00
             116.00,256.00 175.00,218.00 175.00,218.00
             175.00,218.00 234.67,256.00 234.67,256.00
             234.67,256.00 295.00,218.00 295.00,218.00
             295.00,218.00 352.00,256.00 352.00,256.00
             352.00,256.00 410.00,218.00 410.00,218.00
             410.00,218.00 471.33,256.00 471.33,256.00
             471.33,256.00 527.00,218.00 527.00,218.00
             527.00,218.00 587.00,256.00 587.00,256.00
             587.00,256.00 645.00,218.00 645.00,218.00
             645.00,218.00 701.50,256.00 701.50,256.00
             701.50,256.00 645.00,296.00 645.00,296.00
             645.00,296.00 588.50,256.00 588.50,256.00
             588.50,256.00 527.00,296.00 527.00,296.00
             527.00,296.00 471.00,256.00 471.00,256.00
             471.00,256.00 410.00,296.00 410.00,296.00
             410.00,296.00 352.50,256.00 352.50,256.00
             352.50,256.00 295.00,296.00 295.00,296.00
             295.00,296.00 234.50,256.00 234.50,256.00
             234.50,256.00 175.00,296.00 175.00,296.00
             175.00,296.00 116.50,256.00 116.50,256.00
             116.50,256.00 58.00,296.00 58.00,296.00
             58.00,296.00 1.00,256.00 1.00,256.00 Z
           M 1.00,25.00
           C 1.00,25.00 58.00,-13.00 58.00,-13.00
             58.00,-13.00 116.00,25.00 116.00,25.00
             116.00,25.00 175.00,-13.00 175.00,-13.00
             175.00,-13.00 234.67,25.00 234.67,25.00
             234.67,25.00 295.00,-13.00 295.00,-13.00
             295.00,-13.00 352.00,25.00 352.00,25.00
             352.00,25.00 410.00,-13.00 410.00,-13.00
             410.00,-13.00 471.33,25.00 471.33,25.00
             471.33,25.00 527.00,-13.00 527.00,-13.00
             527.00,-13.00 587.00,25.00 587.00,25.00
             587.00,25.00 645.00,-13.00 645.00,-13.00
             645.00,-13.00 701.50,25.00 701.50,25.00
             701.50,25.00 645.00,65.00 645.00,65.00
             645.00,65.00 588.50,25.00 588.50,25.00
             588.50,25.00 527.00,65.00 527.00,65.00
             527.00,65.00 471.00,25.00 471.00,25.00
             471.00,25.00 410.00,65.00 410.00,65.00
             410.00,65.00 352.50,25.00 352.50,25.00
             352.50,25.00 295.00,65.00 295.00,65.00
             295.00,65.00 234.50,25.00 234.50,25.00
             234.50,25.00 175.00,65.00 175.00,65.00
             175.00,65.00 116.50,25.00 116.50,25.00
             116.50,25.00 58.00,65.00 58.00,65.00
             58.00,65.00 1.00,25.00 1.00,25.00 Z
           M 1.00,179.00
           C 1.00,179.00 58.00,141.00 58.00,141.00
             58.00,141.00 116.00,179.00 116.00,179.00
             116.00,179.00 175.00,141.00 175.00,141.00
             175.00,141.00 234.67,179.00 234.67,179.00
             234.67,179.00 295.00,141.00 295.00,141.00
             295.00,141.00 352.00,179.00 352.00,179.00
             352.00,179.00 410.00,141.00 410.00,141.00
             410.00,141.00 471.33,179.00 471.33,179.00
             471.33,179.00 527.00,141.00 527.00,141.00
             527.00,141.00 587.00,179.00 587.00,179.00
             587.00,179.00 645.00,141.00 645.00,141.00
             645.00,141.00 701.50,179.00 701.50,179.00
             701.50,179.00 645.00,219.00 645.00,219.00
             645.00,219.00 588.50,179.00 588.50,179.00
             588.50,179.00 527.00,219.00 527.00,219.00
             527.00,219.00 471.00,179.00 471.00,179.00
             471.00,179.00 410.00,219.00 410.00,219.00
             410.00,219.00 352.50,179.00 352.50,179.00
             352.50,179.00 295.00,219.00 295.00,219.00
             295.00,219.00 234.50,179.00 234.50,179.00
             234.50,179.00 175.00,219.00 175.00,219.00
             175.00,219.00 116.50,179.00 116.50,179.00
             116.50,179.00 58.00,219.00 58.00,219.00
             58.00,219.00 1.00,179.00 1.00,179.00 Z
           M 0.33,411.17
           C 0.33,411.17 57.33,373.17 57.33,373.17
             57.33,373.17 115.33,411.17 115.33,411.17
             115.33,411.17 174.33,373.17 174.33,373.17
             174.33,373.17 234.00,411.17 234.00,411.17
             234.00,411.17 294.33,373.17 294.33,373.17
             294.33,373.17 351.33,411.17 351.33,411.17
             351.33,411.17 409.33,373.17 409.33,373.17
             409.33,373.17 470.67,411.17 470.67,411.17
             470.67,411.17 526.33,373.17 526.33,373.17
             526.33,373.17 586.33,411.17 586.33,411.17
             586.33,411.17 644.33,373.17 644.33,373.17
             644.33,373.17 700.83,411.17 700.83,411.17
             700.83,411.17 644.33,451.17 644.33,451.17
             644.33,451.17 587.83,411.17 587.83,411.17
             587.83,411.17 526.33,451.17 526.33,451.17
             526.33,451.17 470.33,411.17 470.33,411.17
             470.33,411.17 409.33,451.17 409.33,451.17
             409.33,451.17 351.83,411.17 351.83,411.17
             351.83,411.17 294.33,451.17 294.33,451.17
             294.33,451.17 233.83,411.17 233.83,411.17
             233.83,411.17 174.33,451.17 174.33,451.17
             174.33,451.17 115.83,411.17 115.83,411.17
             115.83,411.17 57.33,451.17 57.33,451.17
             57.33,451.17 0.33,411.17 0.33,411.17 Z
           M 1.00,490.50
           C 1.00,490.50 58.00,452.50 58.00,452.50
             58.00,452.50 116.00,490.50 116.00,490.50
             116.00,490.50 175.00,452.50 175.00,452.50
             175.00,452.50 234.67,490.50 234.67,490.50
             234.67,490.50 295.00,452.50 295.00,452.50
             295.00,452.50 352.00,490.50 352.00,490.50
             352.00,490.50 410.00,452.50 410.00,452.50
             410.00,452.50 471.33,490.50 471.33,490.50
             471.33,490.50 527.00,452.50 527.00,452.50
             527.00,452.50 587.00,490.50 587.00,490.50
             587.00,490.50 645.00,452.50 645.00,452.50
             645.00,452.50 701.50,490.50 701.50,490.50
             701.50,490.50 645.00,530.50 645.00,530.50
             645.00,530.50 588.50,490.50 588.50,490.50
             588.50,490.50 527.00,530.50 527.00,530.50
             527.00,530.50 471.00,490.50 471.00,490.50
             471.00,490.50 410.00,530.50 410.00,530.50
             410.00,530.50 352.50,490.50 352.50,490.50
             352.50,490.50 295.00,530.50 295.00,530.50
             295.00,530.50 234.50,490.50 234.50,490.50
             234.50,490.50 175.00,530.50 175.00,530.50
             175.00,530.50 116.50,490.50 116.50,490.50
             116.50,490.50 58.00,530.50 58.00,530.50
             58.00,530.50 1.00,490.50 1.00,490.50 Z
           M 1.00,645.50
           C 1.00,645.50 58.00,607.50 58.00,607.50
             58.00,607.50 116.00,645.50 116.00,645.50
             116.00,645.50 175.00,607.50 175.00,607.50
             175.00,607.50 234.67,645.50 234.67,645.50
             234.67,645.50 295.00,607.50 295.00,607.50
             295.00,607.50 352.00,645.50 352.00,645.50
             352.00,645.50 410.00,607.50 410.00,607.50
             410.00,607.50 471.33,645.50 471.33,645.50
             471.33,645.50 527.00,607.50 527.00,607.50
             527.00,607.50 587.00,645.50 587.00,645.50
             587.00,645.50 645.00,607.50 645.00,607.50
             645.00,607.50 701.50,645.50 701.50,645.50
             701.50,645.50 645.00,685.50 645.00,685.50
             645.00,685.50 588.50,645.50 588.50,645.50
             588.50,645.50 527.00,685.50 527.00,685.50
             527.00,685.50 471.00,645.50 471.00,645.50
             471.00,645.50 410.00,685.50 410.00,685.50
             410.00,685.50 352.50,645.50 352.50,645.50
             352.50,645.50 295.00,685.50 295.00,685.50
             295.00,685.50 234.50,645.50 234.50,645.50
             234.50,645.50 175.00,685.50 175.00,685.50
             175.00,685.50 116.50,645.50 116.50,645.50
             116.50,645.50 58.00,685.50 58.00,685.50
             58.00,685.50 1.00,645.50 1.00,645.50 Z
           M 1.00,569.00
           C 1.00,569.00 58.00,531.00 58.00,531.00
             58.00,531.00 116.00,569.00 116.00,569.00
             116.00,569.00 175.00,531.00 175.00,531.00
             175.00,531.00 234.67,569.00 234.67,569.00
             234.67,569.00 295.00,531.00 295.00,531.00
             295.00,531.00 352.00,569.00 352.00,569.00
             352.00,569.00 410.00,531.00 410.00,531.00
             410.00,531.00 471.33,569.00 471.33,569.00
             471.33,569.00 527.00,531.00 527.00,531.00
             527.00,531.00 587.00,569.00 587.00,569.00
             587.00,569.00 645.00,531.00 645.00,531.00
             645.00,531.00 701.50,569.00 701.50,569.00
             701.50,569.00 645.00,609.00 645.00,609.00
             645.00,609.00 588.50,569.00 588.50,569.00
             588.50,569.00 527.00,609.00 527.00,609.00
             527.00,609.00 471.00,569.00 471.00,569.00
             471.00,569.00 410.00,609.00 410.00,609.00
             410.00,609.00 352.50,569.00 352.50,569.00
             352.50,569.00 295.00,609.00 295.00,609.00
             295.00,609.00 234.50,569.00 234.50,569.00
             234.50,569.00 175.00,609.00 175.00,609.00
             175.00,609.00 116.50,569.00 116.50,569.00
             116.50,569.00 58.00,609.00 58.00,609.00
             58.00,609.00 1.00,569.00 1.00,569.00 Z
           M 1.00,334.50
           C 1.00,334.50 58.00,296.50 58.00,296.50
             58.00,296.50 116.00,334.50 116.00,334.50
             116.00,334.50 175.00,296.50 175.00,296.50
             175.00,296.50 234.67,334.50 234.67,334.50
             234.67,334.50 295.00,296.50 295.00,296.50
             295.00,296.50 352.00,334.50 352.00,334.50
             352.00,334.50 410.00,296.50 410.00,296.50
             410.00,296.50 471.33,334.50 471.33,334.50
             471.33,334.50 527.00,296.50 527.00,296.50
             527.00,296.50 587.00,334.50 587.00,334.50
             587.00,334.50 645.00,296.50 645.00,296.50
             645.00,296.50 701.50,334.50 701.50,334.50
             701.50,334.50 645.00,374.50 645.00,374.50
             645.00,374.50 588.50,334.50 588.50,334.50
             588.50,334.50 527.00,374.50 527.00,374.50
             527.00,374.50 471.00,334.50 471.00,334.50
             471.00,334.50 410.00,374.50 410.00,374.50
             410.00,374.50 352.50,334.50 352.50,334.50
             352.50,334.50 295.00,374.50 295.00,374.50
             295.00,374.50 234.50,334.50 234.50,334.50
             234.50,334.50 175.00,374.50 175.00,374.50
             175.00,374.50 116.50,334.50 116.50,334.50
             116.50,334.50 58.00,374.50 58.00,374.50
             58.00,374.50 1.00,334.50 1.00,334.50 Z
           M 1.00,256.00
           C 1.00,256.00 58.00,218.00 58.00,218.00
             58.00,218.00 116.00,256.00 116.00,256.00
             116.00,256.00 175.00,218.00 175.00,218.00
             175.00,218.00 234.67,256.00 234.67,256.00
             234.67,256.00 295.00,218.00 295.00,218.00
             295.00,218.00 352.00,256.00 352.00,256.00
             352.00,256.00 410.00,218.00 410.00,218.00
             410.00,218.00 471.33,256.00 471.33,256.00
             471.33,256.00 527.00,218.00 527.00,218.00
             527.00,218.00 587.00,256.00 587.00,256.00
             587.00,256.00 645.00,218.00 645.00,218.00
             645.00,218.00 701.50,256.00 701.50,256.00
             701.50,256.00 645.00,296.00 645.00,296.00
             645.00,296.00 588.50,256.00 588.50,256.00
             588.50,256.00 527.00,296.00 527.00,296.00
             527.00,296.00 471.00,256.00 471.00,256.00
             471.00,256.00 410.00,296.00 410.00,296.00
             410.00,296.00 352.50,256.00 352.50,256.00
             352.50,256.00 295.00,296.00 295.00,296.00
             295.00,296.00 234.50,256.00 234.50,256.00
             234.50,256.00 175.00,296.00 175.00,296.00
             175.00,296.00 116.50,256.00 116.50,256.00
             116.50,256.00 58.00,296.00 58.00,296.00
             58.00,296.00 1.00,256.00 1.00,256.00 Z
           M 1.00,103.00
           C 1.00,103.00 58.00,65.00 58.00,65.00
             58.00,65.00 116.00,103.00 116.00,103.00
             116.00,103.00 175.00,65.00 175.00,65.00
             175.00,65.00 234.67,103.00 234.67,103.00
             234.67,103.00 295.00,65.00 295.00,65.00
             295.00,65.00 352.00,103.00 352.00,103.00
             352.00,103.00 410.00,65.00 410.00,65.00
             410.00,65.00 471.33,103.00 471.33,103.00
             471.33,103.00 527.00,65.00 527.00,65.00
             527.00,65.00 587.00,103.00 587.00,103.00
             587.00,103.00 645.00,65.00 645.00,65.00
             645.00,65.00 701.50,103.00 701.50,103.00
             701.50,103.00 645.00,143.00 645.00,143.00
             645.00,143.00 588.50,103.00 588.50,103.00
             588.50,103.00 527.00,143.00 527.00,143.00
             527.00,143.00 471.00,103.00 471.00,103.00
             471.00,103.00 410.00,143.00 410.00,143.00
             410.00,143.00 352.50,103.00 352.50,103.00
             352.50,103.00 295.00,143.00 295.00,143.00
             295.00,143.00 234.50,103.00 234.50,103.00
             234.50,103.00 175.00,143.00 175.00,143.00
             175.00,143.00 116.50,103.00 116.50,103.00
             116.50,103.00 58.00,143.00 58.00,143.00
             58.00,143.00 1.00,103.00 1.00,103.00 Z
           M 1.00,179.00
           C 1.00,179.00 58.00,141.00 58.00,141.00
             58.00,141.00 116.00,179.00 116.00,179.00
             116.00,179.00 175.00,141.00 175.00,141.00
             175.00,141.00 234.67,179.00 234.67,179.00
             234.67,179.00 295.00,141.00 295.00,141.00
             295.00,141.00 352.00,179.00 352.00,179.00
             352.00,179.00 410.00,141.00 410.00,141.00
             410.00,141.00 471.33,179.00 471.33,179.00
             471.33,179.00 527.00,141.00 527.00,141.00
             527.00,141.00 587.00,179.00 587.00,179.00
             587.00,179.00 645.00,141.00 645.00,141.00
             645.00,141.00 701.50,179.00 701.50,179.00
             701.50,179.00 645.00,219.00 645.00,219.00
             645.00,219.00 588.50,179.00 588.50,179.00
             588.50,179.00 527.00,219.00 527.00,219.00
             527.00,219.00 471.00,179.00 471.00,179.00
             471.00,179.00 410.00,219.00 410.00,219.00
             410.00,219.00 352.50,179.00 352.50,179.00
             352.50,179.00 295.00,219.00 295.00,219.00
             295.00,219.00 234.50,179.00 234.50,179.00
             234.50,179.00 175.00,219.00 175.00,219.00
             175.00,219.00 116.50,179.00 116.50,179.00
             116.50,179.00 58.00,219.00 58.00,219.00
             58.00,219.00 1.00,179.00 1.00,179.00 Z" />
</svg>
